<svg id="Layer_1" data-name="Layer 1" xmlns="http://www.w3.org/2000/svg" xmlns:xlink="http://www.w3.org/1999/xlink" viewBox="0 0 2000 600"><defs><style>.cls-1{fill:url(#linear-gradient);}.cls-2{fill:url(#linear-gradient-2);}.cls-3{fill:url(#linear-gradient-3);}.cls-4{fill:url(#linear-gradient-4);}.cls-5{fill:url(#linear-gradient-5);}.cls-6{fill:url(#linear-gradient-6);}.cls-7{fill:url(#linear-gradient-7);}.cls-8{fill:url(#linear-gradient-8);}.cls-9{fill:url(#linear-gradient-9);}.cls-10{fill:url(#linear-gradient-10);}.cls-11{fill:url(#linear-gradient-11);}.cls-12{fill:url(#linear-gradient-12);}.cls-13{fill:url(#linear-gradient-13);}.cls-14{fill:url(#linear-gradient-14);}.cls-15{fill:url(#linear-gradient-15);}.cls-16{fill:url(#linear-gradient-16);}.cls-17{fill:url(#linear-gradient-17);}.cls-18{fill:url(#linear-gradient-18);}.cls-19{fill:url(#linear-gradient-20);}.cls-20{fill:url(#linear-gradient-22);}.cls-21{fill:url(#linear-gradient-24);}.cls-22{fill:url(#linear-gradient-26);}</style><linearGradient id="linear-gradient" x1="614.74" y1="129.4" x2="614.74" y2="452.67" gradientUnits="userSpaceOnUse"><stop offset="0" stop-color="#dfdbeb"/><stop offset="1" stop-color="#ebebda"/></linearGradient><linearGradient id="linear-gradient-2" x1="786.42" y1="129.4" x2="786.42" y2="452.67" xlink:href="#linear-gradient"/><linearGradient id="linear-gradient-3" x1="953.63" y1="129.4" x2="953.63" y2="452.67" xlink:href="#linear-gradient"/><linearGradient id="linear-gradient-4" x1="1097.72" y1="129.4" x2="1097.72" y2="452.67" xlink:href="#linear-gradient"/><linearGradient id="linear-gradient-5" x1="1236.71" y1="129.4" x2="1236.71" y2="452.67" xlink:href="#linear-gradient"/><linearGradient id="linear-gradient-6" x1="1411.99" y1="129.4" x2="1411.99" y2="452.67" xlink:href="#linear-gradient"/><linearGradient id="linear-gradient-7" x1="1567.96" y1="129.4" x2="1567.96" y2="452.67" xlink:href="#linear-gradient"/><linearGradient id="linear-gradient-8" x1="1708.86" y1="129.4" x2="1708.86" y2="452.67" xlink:href="#linear-gradient"/><linearGradient id="linear-gradient-9" x1="1836.61" y1="129.4" x2="1836.61" y2="452.67" xlink:href="#linear-gradient"/><linearGradient id="linear-gradient-10" x1="379.83" y1="148.94" x2="596.42" y2="365.53" gradientUnits="userSpaceOnUse"><stop offset="0.03" stop-color="#ffa3ba"/><stop offset="0.13" stop-color="#e38aca"/><stop offset="0.22" stop-color="#c570db"/><stop offset="0.34" stop-color="#b57fdd"/><stop offset="0.56" stop-color="#8ba8e0"/><stop offset="0.88" stop-color="#48e8e7"/><stop offset="0.98" stop-color="#30ffe9"/></linearGradient><linearGradient id="linear-gradient-11" x1="74.22" y1="225.53" x2="262.06" y2="413.37" gradientUnits="userSpaceOnUse"><stop offset="0" stop-color="#ffa3ba"/><stop offset="0.35" stop-color="#c570db"/><stop offset="0.45" stop-color="#b57fdd"/><stop offset="0.63" stop-color="#8ba8e0"/><stop offset="0.89" stop-color="#48e8e7"/><stop offset="0.98" stop-color="#30ffe9"/></linearGradient><linearGradient id="linear-gradient-12" x1="93.53" y1="206.22" x2="281.37" y2="394.07" xlink:href="#linear-gradient-11"/><linearGradient id="linear-gradient-13" x1="166.75" y1="133" x2="354.6" y2="320.84" xlink:href="#linear-gradient-11"/><linearGradient id="linear-gradient-14" x1="111.42" y1="188.32" x2="299.27" y2="376.17" xlink:href="#linear-gradient-11"/><linearGradient id="linear-gradient-15" x1="130.11" y1="169.64" x2="317.96" y2="357.48" xlink:href="#linear-gradient-11"/><linearGradient id="linear-gradient-16" x1="148.81" y1="150.94" x2="336.66" y2="338.78" xlink:href="#linear-gradient-11"/><linearGradient id="linear-gradient-17" x1="185.94" y1="113.8" x2="373.79" y2="301.65" xlink:href="#linear-gradient-11"/><linearGradient id="linear-gradient-18" x1="250.03" y1="277.21" x2="382.82" y2="410" xlink:href="#linear-gradient-11"/><linearGradient id="linear-gradient-20" x1="285.4" y1="241.84" x2="418.19" y2="374.63" xlink:href="#linear-gradient-11"/><linearGradient id="linear-gradient-22" x1="320.77" y1="206.47" x2="453.56" y2="339.27" xlink:href="#linear-gradient-11"/><linearGradient id="linear-gradient-24" x1="303.11" y1="224.13" x2="435.91" y2="356.92" xlink:href="#linear-gradient-11"/><linearGradient id="linear-gradient-26" x1="267.69" y1="259.56" x2="400.48" y2="392.35" xlink:href="#linear-gradient-11"/></defs><path class="cls-1" d="M537.5,168.22c0-13.16-2.55-18.68-10.19-19.95-9.76-1.7-13.58-1.7-13.58-7.22s6.36-5.94,10.61-5.94c6.37,0,14.85.85,22.07.85s16.55-.85,22.92-.85,7.21,3.82,14,17.4c16.56,33.11,64.94,125.21,86.16,163.83,6.37,11,7.22,11.46,8.07,11.46,1.69,0,2.12-1.7,2.12-5.09V176.28c0-20.8-4.67-26.74-13.16-28-9.34-1.27-14.85-3-14.85-7.22a5.8,5.8,0,0,1,5.94-5.94c4.67,0,11.46,1.7,29.28,1.7,9.77,0,17.83-1.7,25-1.7,5.52,0,7.22,1.28,7.22,5.52,0,5.52-5.09,6.37-14.86,7.64-8.48,1.7-11.46,7.64-11.46,20.37V400.38c0,10.18,0,11-8.48,11-6.37,0-7.22-1.7-16.56-20a164.66,164.66,0,0,0-8.06-14.85c-31.83-60.69-65.36-120.54-96.34-182.08-4.25-8.91-6.8-14-9.34-14-2.12,0-3,1.28-3,7.64V341.81c0,35.22,3,47.11,12.31,49.23,10.61,2.55,20.79.85,20.79,8.49,0,3.82-2.54,4.67-7.21,4.67-5.1,0-7.64-1.7-28.86-1.7-19.53,0-25.89,1.7-32.26,1.7-3.82,0-5.52-1.7-5.52-4.25,0-5.94,12.74-6.79,17.83-8.91,8.06-3,9.34-10.19,9.34-22.07Z"/><path class="cls-2" d="M785.78,408c-46.26,0-77.67-46.27-77.67-101.44s31.41-101.44,78.09-101.44c47.12,0,78.52,46.26,78.52,101.44S833.32,408,786.2,408Zm1.7-11.89c26.74,0,38.62-43.71,38.62-85.31,0-47.53-13.16-93.79-40.74-93.79-27.17,0-39.05,43.71-39.05,85.3,0,47.54,13.58,93.8,40.74,93.8Z"/><path class="cls-3" d="M953,408c-46.27,0-77.67-46.27-77.67-101.44s31.4-101.44,78.09-101.44c47.11,0,78.52,46.26,78.52,101.44S1000.53,408,953.42,408Zm1.69-11.89c26.74,0,38.63-43.71,38.63-85.31,0-47.53-13.16-93.79-40.75-93.79-27.16,0-39.05,43.71-39.05,85.3,0,47.54,13.59,93.8,40.75,93.8Z"/><path class="cls-4" d="M1041.69,258.62c0-37.77,31.83-53.48,64.51-53.48,13.16,0,26.32,2.12,34.38,6.79,1.7.85,2.13,3.82,3,10.19.43,3.82.43,8.91.43,15.7v11c-.43,7.21-1.7,10.61-5.09,10.61-5.1,0-6-7.22-11.89-22.07-4.67-11.46-11-20.37-24.19-20.37-16.55,0-28.44,11.45-28.44,26.31,0,20.37,20,31,39.9,44.14,20,12.73,39.47,28,39.47,57.72,0,41.59-30.13,62.82-69.6,62.82-12.74,0-21.23-1.28-28-3.4q-5.08-1.28-8.91-2.55c-2.55-1.27-4.24-3.39-5.09-12.73-.43-5.09-.43-12.73-.43-24.19,0-19.52,1.28-24.19,5.1-24.19,5.09,0,5.94,5.51,12.3,24.19,6.79,17.4,16.56,31,31.84,31,18.25,0,29.28-12.73,29.28-31,0-25.47-19.52-36.93-39-49.66-19.94-12.31-39.47-26.31-39.47-56.45Z"/><path class="cls-5" d="M1213.58,465.74c0,14,5.94,17,19.1,19.52,7.21,1.27,9.76,1.7,9.76,6.79,0,2.55-3,4.67-11.46,4.67-8.91,0-15.28-1.7-32.68-1.7-15.7,0-27.16,1.7-35.23,1.7-7.64,0-9.76-1.7-9.76-5.09,0-3,.43-5.1,6.37-6.37,16.13-3.82,18.25-4.24,18.25-22.07V257.35c0-11.46-1.7-13.59-9.34-16.13-8.49-2.55-11.46-3.4-11.46-5.94,0-3.82,2.12-5.1,8.92-7.22a337,337,0,0,0,34-17.4c5.52-3.4,7.64-5.52,9.34-5.52s3,1.27,3,5.94v16.56c0,3,.85,4.24,2.54,4.24,2.13,0,6-4.67,11.46-9.76,7.22-6.79,17.4-14.86,30.14-14.86,36.92,0,63.66,42.45,63.66,101.44,0,53.48-27.59,99.32-70,99.32-10.19,0-17.82-3-23.77-5.1-4.67-2.12-7.64-3.82-9.76-3.82-3,0-3,3-3,8.07Zm67.91-156.61c0-49.66-13.16-79.8-37.35-79.8a31.75,31.75,0,0,0-21.22,8.49,23.74,23.74,0,0,0-9.34,18.68v107c0,12.31,3,20.8,8.06,25.47a26.64,26.64,0,0,0,19.1,7.64c22.5,0,40.75-24.62,40.75-87Z"/><path class="cls-6" d="M1340.48,145.3c0-8.07-2.13-10.61-11.46-12.31-7.64-1.7-10.19-2.12-10.19-5.94,0-4.25,3-4.67,11.88-7.22,17.83-5.94,27.17-10.18,33.11-12.73,5.52-2.55,7.21-3.82,9.76-3.82,1.7,0,2.55,1.7,2.55,7.64v121q0,3.83,2.54,3.82c1.7,0,3.4-1.27,5.1-2.55,9.33-8.48,25.46-25.46,49.65-25.46,26.74,0,48,17.4,49.24,50.93V374.91c0,12.31,4.67,17,13.15,18.25,7.22,1.27,9.77,2.55,9.77,5.94,0,3.82-3,5.1-6.37,5.1-2.12,0-13.58-1.7-33.53-1.7-22.49,0-27.16,1.7-31.83,1.7-5.09,0-7.64-1.28-7.64-5.52,0-3.4,2.55-4.25,6.79-5.09,9.76-2.13,14-5.1,14-14.44V263.29c0-10.19-2.55-18.25-7.22-23.77q-8.28-10.19-24.19-10.19c-9.76,0-19.95,4.25-27.59,10.61-7.21,6.37-11.88,14.86-11.88,24.2V377c0,9.34,4.67,14,16.55,16.56,6.37,1.27,7.64,2.54,7.64,5.51,0,3.82-3,5.1-6.37,5.1s-7.64-1.7-36.92-1.7c-22.07,0-25.89,1.7-32.26,1.7-3.39,0-6.36-1.7-6.36-5.52,0-3.4,3-5.52,6.79-6.37,12.73-1.27,15.28-5.52,15.28-20.79Z"/><path class="cls-7" d="M1549.29,298.94c-7.64,0-10.61,3-10.61,9.76,0,43.72,18.67,77.67,48,77.67,19.52,0,31-9.76,36.92-24.19,3.4-7.64,4.25-13.16,7.64-13.16,2.55,0,4.25,1.27,4.25,5.94,0,6.37-2.13,14-6,21.22-8.48,18.25-28,31.84-52.2,31.84-48,0-76.82-40.75-76.82-97.2,0-70,35.65-105.68,76.4-105.68,33.95,0,58.57,25.47,58.57,68.33,0,23.77-.43,25.47-12.31,25.47Zm-9.76-23.34c0,8.06,1.27,10.18,16.13,10.18a141.63,141.63,0,0,0,20.79-1.7c12.73-1.69,21.22-5.09,23.34-8.48,3.4-3.4,4.67-8.07,4.67-17.83,0-25-11.46-40.32-28-40.32-21.64,0-36.92,28-36.92,57.72Z"/><path class="cls-8" d="M1669.39,257.35c0-14-4.24-17-15.28-17-3.39-.43-5.51-1.27-5.51-4.67,0-4.24,2.54-5.52,8.91-7.22,8.49-3,19.1-6.36,29.29-14.85,5.51-5.52,8.06-8.49,11.45-8.49,1.7,0,3.4,2.12,3.4,6.37.42,5.52.42,12.73.42,21.22,0,5.52,0,9.76,1.7,9.76,3.82,0,5.94-8.91,12.31-18.67,5.94-8.92,14.43-18.68,29.71-18.68,16.13,0,25.47,12.73,25.47,31.83,0,15.71-6,27.59-20,27.59-11.46,0-15.28-7.64-16.56-16.55-.84-6.79-1.69-14-6.79-14-7.64,0-13.15,8.07-17,17.83-3.82,10.18-6,19.95-6,27.16v87.43c0,18.68,1.7,23.77,15.28,25.89,11,2.12,15.28,3,15.28,6.79,0,4.25-3,5.1-10.18,5.1-4.67,0-10.61-1.7-37.78-1.7-21.64,0-27.58,1.7-32.25,1.7-5.52,0-8.92-1.28-8.92-5.1,0-4.24,3.82-5.09,10.62-6.79,10.18-1.27,12.3-3.39,12.3-19.95Z"/><path class="cls-9" d="M1817.93,298.94c-7.64,0-10.61,3-10.61,9.76,0,43.72,18.68,77.67,48,77.67,19.53,0,31-9.76,36.93-24.19,3.39-7.64,4.24-13.16,7.64-13.16,2.54,0,4.24,1.27,4.24,5.94,0,6.37-2.12,14-5.94,21.22-8.49,18.25-28,31.84-52.2,31.84-48,0-76.82-40.75-76.82-97.2,0-70,35.65-105.68,76.39-105.68,34,0,58.57,25.47,58.57,68.33,0,23.77-.42,25.47-12.31,25.47Zm-9.76-23.34c0,8.06,1.28,10.18,16.13,10.18a141.65,141.65,0,0,0,20.8-1.7c12.73-1.69,21.22-5.09,23.34-8.48,3.4-3.4,4.67-8.07,4.67-17.83,0-25-11.46-40.32-28-40.32-21.65,0-36.93,28-36.93,57.72Z"/><path class="cls-10" d="M365.65,175.75a41,41,0,0,0,41-41,41,41,0,0,0,41,41,41,41,0,0,0-41,41A41,41,0,0,0,365.65,175.75Z"/><path class="cls-11" d="M230.28,403.5a133.67,133.67,0,0,0,73.51-21.91h-147A133.7,133.7,0,0,0,230.28,403.5Z"/><path class="cls-12" d="M134.25,363.08H326.3a134.58,134.58,0,0,0,17.75-22.48H116.51A134.52,134.52,0,0,0,134.25,363.08Z"/><path class="cls-13" d="M327.69,176.64H132.86a135.17,135.17,0,0,0-17.29,22.48H345A134.64,134.64,0,0,0,327.69,176.64Z"/><path class="cls-14" d="M106.76,322.1h247a133.21,133.21,0,0,0,7.34-22.49H99.42A134.12,134.12,0,0,0,106.76,322.1Z"/><path class="cls-15" d="M364.2,258.62H96.36c-.27,3.47-.45,7-.45,10.51,0,4,.21,8,.56,12H364.09c.35-3.94.56-7.93.56-12C364.65,265.59,364.47,262.09,364.2,258.62Z"/><path class="cls-16" d="M354.4,217.63H106.15a133.49,133.49,0,0,0-7.06,22.48H361.47A133.52,133.52,0,0,0,354.4,217.63Z"/><path class="cls-17" d="M245.5,135.65a134.46,134.46,0,0,0-90.94,22.48H306A133.61,133.61,0,0,0,245.5,135.65Z"/><path class="cls-18" d="M354.41,404.08a92.86,92.86,0,0,0,60.68-22.49H293.72A92.86,92.86,0,0,0,354.41,404.08Z"/><path class="cls-18" d="M354.41,404.08a92.86,92.86,0,0,0,60.68-22.49H293.72A92.86,92.86,0,0,0,354.41,404.08Z"/><path class="cls-19" d="M261.18,310.85a94.91,94.91,0,0,0,.7,11.25H446.93a90.67,90.67,0,0,0,0-22.49h-185A94.74,94.74,0,0,0,261.18,310.85Z"/><path class="cls-19" d="M261.18,310.85a94.91,94.91,0,0,0,.7,11.25H446.93a90.67,90.67,0,0,0,0-22.49h-185A94.74,94.74,0,0,0,261.18,310.85Z"/><path class="cls-20" d="M293.72,240.11H415.09a93.15,93.15,0,0,0-121.37,0Z"/><path class="cls-20" d="M293.72,240.11H415.09a93.15,93.15,0,0,0-121.37,0Z"/><path class="cls-21" d="M266.06,281.1h176.7a93.13,93.13,0,0,0-11.13-22.48H277.18A93.1,93.1,0,0,0,266.06,281.1Z"/><path class="cls-21" d="M266.06,281.1h176.7a93.13,93.13,0,0,0-11.13-22.48H277.18A93.1,93.1,0,0,0,266.06,281.1Z"/><path class="cls-22" d="M277.18,363.08H431.63a92.77,92.77,0,0,0,11.13-22.48H266.06A92.74,92.74,0,0,0,277.18,363.08Z"/><path class="cls-22" d="M277.18,363.08H431.63a92.77,92.77,0,0,0,11.13-22.48H266.06A92.74,92.74,0,0,0,277.18,363.08Z"/></svg>