<svg width="400" height="307" viewBox="0 0 400 307" fill="none" xmlns="http://www.w3.org/2000/svg">
<g clip-path="url(#clip0_12_524)">
<path d="M307.051 46.4764C313.155 46.4764 319.198 45.2743 324.836 42.9387C330.475 40.6027 335.598 37.1794 339.914 32.8636C344.229 28.5478 347.652 23.4243 349.987 17.7855C352.322 12.1466 353.524 6.10322 353.523 0C353.523 12.3265 358.42 24.1479 367.136 32.8636C375.852 41.5798 387.673 46.4764 400 46.4764C387.674 46.4764 375.853 51.3727 367.137 60.0875C358.422 68.8028 353.525 80.6228 353.523 92.9484C353.523 86.8457 352.321 80.8027 349.986 75.1643C347.65 69.5263 344.227 64.4033 339.912 60.0879C335.596 55.7726 330.473 52.3492 324.835 50.0141C319.197 47.6786 313.154 46.4764 307.051 46.4764Z" fill="white"/>
<mask id="mask0_12_524" style="mask-type:alpha" maskUnits="userSpaceOnUse" x="0" y="0" width="306" height="306">
<path d="M152.813 305.622C182.518 305.656 211.583 296.99 236.418 280.693H69.2044C94.0413 296.99 123.107 305.657 152.813 305.622Z" fill="#FF0040"/>
<path d="M43.6044 259.658H262.018C269.642 251.875 276.415 243.302 282.222 234.084H23.4267C29.2271 243.3 35.9911 251.873 43.6044 259.658Z" fill="#FF0040"/>
<path d="M263.595 47.6223H42.0311C34.5938 55.4307 28.0018 64.0027 22.3644 73.1956H283.253C277.62 64.0018 271.031 55.4298 263.595 47.6223Z" fill="#FF0040"/>
<path d="M12.3467 213.044H293.275C296.813 204.783 299.609 196.223 301.631 187.467H4C6.01902 196.223 8.81222 204.783 12.3467 213.044Z" fill="#FF0040"/>
<path d="M305.116 140.853H0.511112C0.204445 144.804 0 148.782 0 152.813C0 157.404 0.24 161.938 0.635556 166.427H304.987C305.387 161.938 305.627 157.404 305.627 152.813C305.627 148.782 305.422 144.804 305.116 140.853Z" fill="#FF0040"/>
<path d="M293.973 94.2355H11.6533C8.2227 102.504 5.53213 111.06 3.61333 119.804H302.013C300.092 111.061 297.402 102.505 293.973 94.2355Z" fill="#FF0040"/>
<path d="M170.124 1.00446C158.623 -0.334648 147.004 -0.334648 135.502 1.00446C110.821 3.7738 87.196 12.5551 66.6978 26.5778H238.924C218.427 12.5556 194.804 3.77468 170.124 1.00446Z" fill="#FF0040"/>
</mask>
<g mask="url(#mask0_12_524)">
<path fill-rule="evenodd" clip-rule="evenodd" d="M340.663 105.256L132.727 -69.0818L-69.4408 172.047L173.051 375.357L242.127 292.969C209.823 274.801 188 240.196 188 200.493C188 141.939 235.467 94.4711 294.02 94.4711C310.757 94.4711 326.588 98.3494 340.663 105.256Z" fill="url(#paint0_linear_12_524)"/>
</g>
<mask id="mask1_12_524" style="mask-type:alpha" maskUnits="userSpaceOnUse" x="187" y="94" width="213" height="213">
<path d="M293.982 306.276C319.31 306.301 343.803 297.221 362.995 280.693H224.969C244.16 297.223 268.654 306.302 293.982 306.276Z" fill="#FF0040"/>
<path d="M187.96 200.249C187.971 204.523 188.236 208.793 188.755 213.036H399.204C400.265 204.544 400.265 195.954 399.204 187.462H188.755C188.236 191.705 187.97 195.975 187.96 200.249Z" fill="#FF0040"/>
<path d="M224.964 119.804H362.995C343.787 103.304 319.303 94.2315 293.98 94.2315C268.657 94.2315 244.173 103.304 224.964 119.804Z" fill="#FF0040"/>
<path d="M193.507 166.427H394.453C391.414 157.369 387.159 148.766 381.804 140.853H206.155C200.803 148.767 196.547 157.37 193.507 166.427Z" fill="#FF0040"/>
<path d="M206.155 259.658H381.804C387.159 251.745 391.414 243.142 394.453 234.084H193.507C196.547 243.141 200.803 251.744 206.155 259.658Z" fill="#FF0040"/>
</mask>
<g mask="url(#mask1_12_524)">
<path d="M444.309 187.705L279.568 49.5822L142.222 213.397L306.963 351.52L444.309 187.705Z" fill="url(#paint1_linear_12_524)"/>
</g>
</g>
<defs>
<linearGradient id="paint0_linear_12_524" x1="35.5" y1="43.5" x2="266.634" y2="225.103" gradientUnits="userSpaceOnUse">
<stop stop-color="white"/>
<stop offset="1" stop-color="white" stop-opacity="0"/>
</linearGradient>
<linearGradient id="paint1_linear_12_524" x1="215.365" y1="133.52" x2="372.373" y2="257.919" gradientUnits="userSpaceOnUse">
<stop stop-color="white"/>
<stop offset="1" stop-color="white" stop-opacity="0"/>
</linearGradient>
<clipPath id="clip0_12_524">
<rect width="400" height="307" fill="white"/>
</clipPath>
</defs>
</svg>
