<svg width="329" height="80" viewBox="0 0 329 80" fill="none" xmlns="http://www.w3.org/2000/svg">
<path d="M0 10C0 4.47715 4.47715 0 10 0H319C324.523 0 329 4.47715 329 10V70C329 75.5228 324.523 80 319 80H10C4.47716 80 0 75.5228 0 70V10Z" fill="white"/>
<path d="M162 45L162 64C162 65.1046 161.105 66 160 66L12 66C10.8954 66 10 65.1046 10 64L10 45C10 45 114.5 44.5 117.5 44.5C120.5 44.5 121 38 122 38C123 38 123.5 44.5 126.5 44.5C129.5 44.5 162 45 162 45Z" fill="#FAF9FF"/>
<path d="M9 45.808C9 44.7413 9.55467 44.208 10.664 44.208L114.696 44.208C116.616 44.208 118.003 43.6533 118.856 42.544C119.752 41.4347 120.2 39.92 120.2 38L123.272 38C123.272 39.92 123.699 41.4347 124.552 42.544C125.448 43.6533 126.856 44.208 128.776 44.208L160.808 44.208C161.917 44.208 162.472 44.7413 162.472 45.808L162.472 52.208L161.32 52.208L161.32 45.488L128.776 45.488C126.771 45.488 125.171 44.912 123.976 43.76C122.824 42.608 122.248 41.072 122.248 39.152L121.224 39.152C121.224 41.072 120.627 42.608 119.432 43.76C118.28 44.912 116.701 45.488 114.696 45.488L10.152 45.488L10.152 52.208L9 52.208L9 45.808Z" fill="#6B6492"/>
<path d="M167.472 45L167.472 64C167.472 65.1046 168.367 66 169.472 66L317.472 66C318.577 66 319.472 65.1046 319.472 64L319.472 45C319.472 45 214.972 44.5 211.972 44.5C208.972 44.5 208.472 38 207.472 38C206.472 38 205.972 44.5 202.972 44.5C199.972 44.5 167.472 45 167.472 45Z" fill="#FAF9FF"/>
<path d="M320.472 45.808C320.472 44.7413 319.917 44.208 318.808 44.208L214.776 44.208C212.856 44.208 211.469 43.6533 210.616 42.544C209.72 41.4347 209.272 39.92 209.272 38L206.2 38C206.2 39.92 205.773 41.4347 204.92 42.544C204.024 43.6533 202.616 44.208 200.696 44.208L168.664 44.208C167.555 44.208 167 44.7413 167 45.808L167 52.208L168.152 52.208L168.152 45.488L200.696 45.488C202.701 45.488 204.301 44.912 205.496 43.76C206.648 42.608 207.224 41.072 207.224 39.152L208.248 39.152C208.248 41.072 208.845 42.608 210.04 43.76C211.192 44.912 212.771 45.488 214.776 45.488L319.32 45.488L319.32 52.208L320.472 52.208L320.472 45.808Z" fill="#6B6492"/>
<path d="M71.18 29.24H68.84C67.9733 29.24 67.24 29.12 66.64 28.88C66.04 28.6533 65.5533 28.3133 65.18 27.86C64.82 27.4067 64.5533 26.84 64.38 26.16C64.22 25.48 64.14 24.7 64.14 23.82C64.14 22.9 64.26 21.7067 64.5 20.24C64.7133 18.9067 64.98 17.7667 65.3 16.82C65.62 15.8733 66 15.1067 66.44 14.52C66.8933 13.92 67.42 13.4867 68.02 13.22C68.6333 12.94 69.3333 12.8 70.12 12.8C70.8133 12.8 71.42 12.9 71.94 13.1C72.46 13.2867 72.8867 13.5533 73.22 13.9C73.5667 14.2333 73.82 14.6333 73.98 15.1C74.1533 15.5667 74.24 16.0667 74.24 16.6C74.24 16.7867 74.2267 16.9733 74.2 17.16C74.1867 17.3333 74.1667 17.5267 74.14 17.74L72.92 25.18H71.52L71.8 23.48H71.72C71.5333 24.0133 71.2533 24.4733 70.88 24.86C70.5067 25.2333 70.0133 25.42 69.4 25.42C68.7733 25.42 68.2667 25.1733 67.88 24.68C67.4933 24.1867 67.3 23.38 67.3 22.26C67.3 21.6067 67.3733 20.9533 67.52 20.3C67.6667 19.6467 67.88 19.0667 68.16 18.56C68.44 18.0533 68.7933 17.64 69.22 17.32C69.6467 17 70.14 16.84 70.7 16.84C71.2467 16.84 71.6667 16.9867 71.96 17.28C72.2667 17.5733 72.4667 17.9533 72.56 18.42H72.64L72.74 17.78C72.7667 17.5933 72.7867 17.4067 72.8 17.22C72.8267 17.02 72.84 16.8333 72.84 16.66C72.84 15.86 72.64 15.22 72.24 14.74C71.84 14.26 71.14 14.02 70.14 14.02C69.66 14.02 69.2133 14.1 68.8 14.26C68.3867 14.4067 68.0133 14.6733 67.68 15.06C67.3467 15.4467 67.0533 15.9667 66.8 16.62C66.5467 17.2733 66.34 18.0933 66.18 19.08L65.68 22.12C65.6533 22.2667 65.6267 22.4467 65.6 22.66C65.5867 22.86 65.5733 23.0667 65.56 23.28C65.56 23.48 65.5533 23.6667 65.54 23.84C65.54 24.0133 65.54 24.1467 65.54 24.24C65.54 24.8267 65.5933 25.3533 65.7 25.82C65.8067 26.2867 65.9867 26.68 66.24 27C66.5067 27.32 66.8533 27.56 67.28 27.72C67.7067 27.8933 68.2467 27.98 68.9 27.98H71.36L71.18 29.24ZM69.94 24.24C70.2467 24.24 70.5133 24.1667 70.74 24.02C70.9667 23.8733 71.1733 23.6733 71.36 23.42C71.5467 23.1533 71.7 22.88 71.82 22.6C71.94 22.3067 72.0333 21.98 72.1 21.62L72.44 19.6C72.4667 19.4267 72.4667 19.2467 72.44 19.06C72.4133 18.8733 72.34 18.7067 72.22 18.56C72.1133 18.4 71.96 18.2733 71.76 18.18C71.5733 18.0733 71.3333 18.02 71.04 18.02C70.4667 18.02 70.0267 18.2267 69.72 18.64C69.4133 19.0533 69.1867 19.68 69.04 20.52L68.84 21.72C68.8133 21.9067 68.7933 22.08 68.78 22.24C68.7667 22.3867 68.76 22.52 68.76 22.64C68.76 23.1867 68.86 23.5933 69.06 23.86C69.2733 24.1133 69.5667 24.24 69.94 24.24ZM79.2322 31.24C77.5789 31.24 76.3722 30.7667 75.6122 29.82L76.6922 28.78C76.9589 29.1267 77.3055 29.3933 77.7322 29.58C78.1589 29.7667 78.6922 29.86 79.3322 29.86C80.2789 29.86 81.0322 29.62 81.5922 29.14C82.1522 28.66 82.5255 27.8467 82.7122 26.7L83.1322 24.22H83.0522C82.6655 25.0467 82.1789 25.7 81.5922 26.18C81.0189 26.66 80.2789 26.9 79.3722 26.9C78.3055 26.9 77.4989 26.5667 76.9522 25.9C76.4055 25.22 76.1322 24.2467 76.1322 22.98C76.1322 22.3133 76.2189 21.6 76.3922 20.84C76.5655 20.0667 76.8455 19.36 77.2322 18.72C77.6189 18.0667 78.1189 17.5267 78.7322 17.1C79.3455 16.66 80.0989 16.44 80.9922 16.44C81.7522 16.44 82.3855 16.6133 82.8922 16.96C83.4122 17.2933 83.7855 17.8 84.0122 18.48H84.0722L84.3722 16.68H85.9322L84.2122 27C83.9455 28.52 83.3722 29.6067 82.4922 30.26C81.6122 30.9133 80.5255 31.24 79.2322 31.24ZM79.9122 25.52C80.3389 25.52 80.7589 25.4333 81.1722 25.26C81.5855 25.0867 81.9789 24.7933 82.3522 24.38C82.5389 24.1667 82.7522 23.8667 82.9922 23.48C83.2322 23.08 83.3989 22.6 83.4922 22.04L83.8122 20.08C83.9322 19.36 83.7589 18.8067 83.2922 18.42C82.8389 18.02 82.2255 17.82 81.4522 17.82C80.4789 17.82 79.6989 18.1133 79.1122 18.7C78.5389 19.2867 78.1722 20.06 78.0122 21.02L77.8322 22.1C77.8055 22.2867 77.7789 22.4467 77.7522 22.58C77.7389 22.7 77.7322 22.8333 77.7322 22.98C77.7322 23.8067 77.9122 24.44 78.2722 24.88C78.6455 25.3067 79.1922 25.52 79.9122 25.52ZM92.2844 27.24C91.6177 27.24 91.031 27.1333 90.5244 26.92C90.031 26.7067 89.6177 26.4133 89.2844 26.04C88.951 25.6533 88.6977 25.1933 88.5244 24.66C88.351 24.1133 88.2644 23.52 88.2644 22.88C88.2644 21.8933 88.4044 21.0067 88.6844 20.22C88.9644 19.42 89.3444 18.74 89.8244 18.18C90.3177 17.62 90.891 17.1933 91.5444 16.9C92.1977 16.5933 92.9044 16.44 93.6644 16.44C94.331 16.44 94.9177 16.5467 95.4244 16.76C95.931 16.9733 96.351 17.2733 96.6844 17.66C97.031 18.0333 97.2844 18.4933 97.4444 19.04C97.6177 19.5733 97.7044 20.16 97.7044 20.8C97.7044 21.7867 97.5644 22.68 97.2844 23.48C97.0044 24.2667 96.6177 24.94 96.1244 25.5C95.6444 26.06 95.071 26.4933 94.4044 26.8C93.751 27.0933 93.0444 27.24 92.2844 27.24ZM92.3644 25.88C93.3377 25.88 94.111 25.5867 94.6844 25C95.271 24.4 95.651 23.5867 95.8244 22.56L96.0244 21.36C96.0644 21.12 96.091 20.92 96.1044 20.76C96.1177 20.6 96.1244 20.46 96.1244 20.34C96.1244 19.46 95.8977 18.82 95.4444 18.42C94.991 18.0067 94.3777 17.8 93.6044 17.8C92.631 17.8 91.851 18.1 91.2644 18.7C90.691 19.2867 90.3177 20.0933 90.1444 21.12L89.9444 22.32C89.9044 22.56 89.8777 22.76 89.8644 22.92C89.851 23.08 89.8444 23.22 89.8444 23.34C89.8444 24.22 90.071 24.8667 90.5244 25.28C90.9777 25.68 91.591 25.88 92.3644 25.88ZM102.537 27L104.037 18.02H101.137L101.357 16.68H105.817L105.357 19.44H105.457C105.63 19.0267 105.83 18.6533 106.057 18.32C106.283 17.9733 106.543 17.68 106.837 17.44C107.143 17.2 107.49 17.0133 107.877 16.88C108.263 16.7467 108.703 16.68 109.197 16.68H110.757L110.497 18.24H108.737C108.137 18.24 107.637 18.3267 107.237 18.5C106.837 18.66 106.483 18.92 106.177 19.28C106.11 19.36 106.017 19.4733 105.897 19.62C105.79 19.7533 105.677 19.92 105.557 20.12C105.437 20.32 105.323 20.5467 105.217 20.8C105.123 21.0533 105.05 21.3267 104.997 21.62L104.097 27H102.537ZM119.029 24.56H118.969C118.569 25.3733 118.082 26.0267 117.509 26.52C116.949 27 116.215 27.24 115.309 27.24C114.269 27.24 113.469 26.9067 112.909 26.24C112.362 25.5733 112.089 24.5733 112.089 23.24C112.089 22.5467 112.169 21.8067 112.329 21.02C112.502 20.22 112.775 19.48 113.149 18.8C113.535 18.12 114.042 17.56 114.669 17.12C115.295 16.6667 116.062 16.44 116.969 16.44C117.729 16.44 118.362 16.6133 118.869 16.96C119.389 17.2933 119.762 17.8 119.989 18.48H120.049L121.109 12.2H122.669L120.189 27H118.629L119.029 24.56ZM115.849 25.86C116.275 25.86 116.695 25.7733 117.109 25.6C117.522 25.4133 117.909 25.12 118.269 24.72C118.535 24.4267 118.769 24.08 118.969 23.68C119.182 23.28 119.329 22.84 119.409 22.36L119.789 20.08C119.909 19.36 119.735 18.8067 119.269 18.42C118.815 18.02 118.202 17.82 117.429 17.82C116.429 17.82 115.642 18.12 115.069 18.72C114.509 19.32 114.149 20.1 113.989 21.06L113.749 22.5C113.722 22.6867 113.702 22.8533 113.689 23C113.675 23.1333 113.669 23.2667 113.669 23.4C113.669 24.1733 113.849 24.78 114.209 25.22C114.582 25.6467 115.129 25.86 115.849 25.86ZM128.261 27.24C127.594 27.24 127.008 27.1333 126.501 26.92C126.008 26.7067 125.594 26.4133 125.261 26.04C124.928 25.6533 124.674 25.1933 124.501 24.66C124.328 24.1133 124.241 23.52 124.241 22.88C124.241 21.8933 124.381 21.0067 124.661 20.22C124.941 19.42 125.321 18.74 125.801 18.18C126.294 17.62 126.868 17.1933 127.521 16.9C128.174 16.5933 128.881 16.44 129.641 16.44C130.308 16.44 130.894 16.5467 131.401 16.76C131.908 16.9733 132.328 17.2733 132.661 17.66C133.008 18.0333 133.261 18.4933 133.421 19.04C133.594 19.5733 133.681 20.16 133.681 20.8C133.681 21.7867 133.541 22.68 133.261 23.48C132.981 24.2667 132.594 24.94 132.101 25.5C131.621 26.06 131.048 26.4933 130.381 26.8C129.728 27.0933 129.021 27.24 128.261 27.24ZM128.341 25.88C129.314 25.88 130.088 25.5867 130.661 25C131.248 24.4 131.628 23.5867 131.801 22.56L132.001 21.36C132.041 21.12 132.068 20.92 132.081 20.76C132.094 20.6 132.101 20.46 132.101 20.34C132.101 19.46 131.874 18.82 131.421 18.42C130.968 18.0067 130.354 17.8 129.581 17.8C128.608 17.8 127.828 18.1 127.241 18.7C126.668 19.2867 126.294 20.0933 126.121 21.12L125.921 22.32C125.881 22.56 125.854 22.76 125.841 22.92C125.828 23.08 125.821 23.22 125.821 23.34C125.821 24.22 126.048 24.8667 126.501 25.28C126.954 25.68 127.568 25.88 128.341 25.88ZM136.133 27L137.853 16.68H139.413L139.013 19.12H139.093C139.48 18.2933 139.94 17.64 140.473 17.16C141.006 16.68 141.693 16.44 142.533 16.44C143.4 16.44 144.08 16.7 144.573 17.22C145.08 17.74 145.333 18.4733 145.333 19.42C145.333 19.62 145.32 19.84 145.293 20.08C145.28 20.3067 145.253 20.5333 145.213 20.76L144.173 27H142.613L143.633 20.9C143.673 20.66 143.7 20.4467 143.713 20.26C143.726 20.06 143.733 19.9067 143.733 19.8C143.733 19.1867 143.593 18.7067 143.313 18.36C143.033 18 142.6 17.82 142.013 17.82C141.56 17.82 141.153 17.92 140.793 18.12C140.446 18.32 140.126 18.5933 139.833 18.94C139.78 19.0067 139.693 19.1133 139.573 19.26C139.466 19.3933 139.353 19.5667 139.233 19.78C139.113 19.98 139 20.2133 138.893 20.48C138.786 20.7333 138.706 21.0067 138.653 21.3L137.693 27H136.133Z" fill="#E66E00"/>
<path d="M147.445 29.76L157.365 11.8H158.825L148.885 29.76H147.445ZM164.478 27.24C163.171 27.24 162.164 26.88 161.458 26.16C160.751 25.4267 160.398 24.3133 160.398 22.82C160.398 21.8867 160.538 21.0333 160.818 20.26C161.098 19.4733 161.484 18.8 161.978 18.24C162.484 17.6667 163.084 17.2267 163.778 16.92C164.484 16.6 165.251 16.44 166.078 16.44C166.584 16.44 167.051 16.5 167.478 16.62C167.904 16.74 168.271 16.92 168.578 17.16C168.898 17.3867 169.144 17.6733 169.318 18.02C169.491 18.3667 169.578 18.7667 169.578 19.22C169.578 19.58 169.491 19.9533 169.318 20.34C169.158 20.7267 168.811 21.0867 168.278 21.42C167.758 21.7533 166.998 22.0333 165.998 22.26C165.011 22.4867 163.698 22.62 162.058 22.66C162.044 22.7667 162.038 22.8667 162.038 22.96C162.038 23.04 162.038 23.0933 162.038 23.12C162.038 23.48 162.071 23.8267 162.138 24.16C162.204 24.4933 162.331 24.7933 162.518 25.06C162.704 25.3133 162.964 25.52 163.298 25.68C163.631 25.8267 164.071 25.9 164.618 25.9C164.991 25.9 165.324 25.86 165.618 25.78C165.924 25.6867 166.211 25.5533 166.478 25.38C166.758 25.1933 167.024 24.96 167.278 24.68C167.544 24.3867 167.824 24.0333 168.118 23.62L169.217 24.3C168.631 25.26 167.964 25.9933 167.218 26.5C166.484 26.9933 165.571 27.24 164.478 27.24ZM165.938 17.74C164.898 17.74 164.051 18.0533 163.398 18.68C162.744 19.3067 162.344 20.2067 162.198 21.38L162.178 21.58C163.431 21.54 164.438 21.4467 165.198 21.3C165.971 21.14 166.558 20.9533 166.958 20.74C167.371 20.5267 167.644 20.2933 167.778 20.04C167.911 19.7867 167.978 19.5333 167.978 19.28C167.978 19.0667 167.938 18.8667 167.858 18.68C167.791 18.4933 167.678 18.3333 167.518 18.2C167.358 18.0533 167.144 17.94 166.878 17.86C166.624 17.78 166.311 17.74 165.938 17.74ZM176.19 16.68L174.83 25.76L175.09 25.94C175.916 25.8333 176.643 25.58 177.27 25.18C177.91 24.78 178.443 24.2867 178.87 23.7C179.296 23.1133 179.616 22.46 179.83 21.74C180.043 21.02 180.15 20.2867 180.15 19.54C180.15 19.0867 180.103 18.6467 180.01 18.22C179.916 17.78 179.776 17.3733 179.59 17L181.09 16.56C181.303 16.96 181.463 17.4067 181.57 17.9C181.69 18.3933 181.75 18.9133 181.75 19.46C181.75 20.5133 181.563 21.5067 181.19 22.44C180.83 23.3733 180.336 24.1933 179.71 24.9C179.083 25.5933 178.35 26.1467 177.51 26.56C176.683 26.96 175.803 27.16 174.87 27.16C174.35 27.16 173.963 27.0333 173.71 26.78C173.456 26.5267 173.33 26.1733 173.33 25.72C173.33 25.6133 173.336 25.4933 173.35 25.36C173.363 25.2267 173.383 25.1 173.41 24.98L174.45 18.02H172.25L172.47 16.68H176.19ZM188.222 27.24C187.555 27.24 186.969 27.1333 186.462 26.92C185.969 26.7067 185.555 26.4133 185.222 26.04C184.889 25.6533 184.635 25.1933 184.462 24.66C184.289 24.1133 184.202 23.52 184.202 22.88C184.202 21.8933 184.342 21.0067 184.622 20.22C184.902 19.42 185.282 18.74 185.762 18.18C186.255 17.62 186.829 17.1933 187.482 16.9C188.135 16.5933 188.842 16.44 189.602 16.44C190.269 16.44 190.855 16.5467 191.362 16.76C191.869 16.9733 192.289 17.2733 192.622 17.66C192.969 18.0333 193.222 18.4933 193.382 19.04C193.555 19.5733 193.642 20.16 193.642 20.8C193.642 21.7867 193.502 22.68 193.222 23.48C192.942 24.2667 192.555 24.94 192.062 25.5C191.582 26.06 191.009 26.4933 190.342 26.8C189.689 27.0933 188.982 27.24 188.222 27.24ZM188.302 25.88C189.275 25.88 190.049 25.5867 190.622 25C191.209 24.4 191.589 23.5867 191.762 22.56L191.962 21.36C192.002 21.12 192.029 20.92 192.042 20.76C192.055 20.6 192.062 20.46 192.062 20.34C192.062 19.46 191.835 18.82 191.382 18.42C190.929 18.0067 190.315 17.8 189.542 17.8C188.569 17.8 187.789 18.1 187.202 18.7C186.629 19.2867 186.255 20.0933 186.082 21.12L185.882 22.32C185.842 22.56 185.815 22.76 185.802 22.92C185.789 23.08 185.782 23.22 185.782 23.34C185.782 24.22 186.009 24.8667 186.462 25.28C186.915 25.68 187.529 25.88 188.302 25.88ZM199.894 27.24C199.347 27.24 198.961 27.1067 198.734 26.84C198.507 26.5733 198.394 26.2333 198.394 25.82C198.394 25.7267 198.394 25.62 198.394 25.5C198.407 25.38 198.427 25.2733 198.454 25.18L200.694 13.54H197.054L197.274 12.2H202.534L199.934 25.7L200.434 25.86L204.534 22.38L205.434 23.26L203.354 25.14C202.874 25.58 202.461 25.94 202.114 26.22C201.767 26.4867 201.461 26.7 201.194 26.86C200.941 27.0067 200.707 27.1067 200.494 27.16C200.294 27.2133 200.094 27.24 199.894 27.24ZM214.886 24.56H214.806C214.42 25.3867 213.96 26.04 213.426 26.52C212.893 27 212.206 27.24 211.366 27.24C210.5 27.24 209.813 26.98 209.306 26.46C208.813 25.94 208.566 25.2067 208.566 24.26C208.566 23.8333 208.606 23.3867 208.686 22.92L209.726 16.68H211.286L210.266 22.78C210.226 23.02 210.2 23.24 210.186 23.44C210.173 23.6267 210.166 23.7733 210.166 23.88C210.166 24.4933 210.306 24.98 210.586 25.34C210.866 25.6867 211.3 25.86 211.886 25.86C212.34 25.86 212.74 25.76 213.086 25.56C213.446 25.36 213.773 25.0867 214.066 24.74C214.12 24.6733 214.2 24.5733 214.306 24.44C214.426 24.2933 214.546 24.12 214.666 23.92C214.786 23.7067 214.9 23.4733 215.006 23.22C215.113 22.9533 215.193 22.6733 215.246 22.38L216.206 16.68H217.766L216.046 27H214.486L214.886 24.56ZM223.678 27.24C223.212 27.24 222.845 27.1133 222.578 26.86C222.325 26.6067 222.198 26.24 222.198 25.76C222.198 25.6667 222.198 25.54 222.198 25.38C222.212 25.22 222.232 25.0867 222.258 24.98L223.458 18.02H220.478L220.698 16.68H222.798C223.145 16.68 223.398 16.6133 223.558 16.48C223.732 16.3333 223.852 16.0867 223.918 15.74L224.378 13.04H225.858L225.238 16.68H229.498L229.278 18.02H225.018L223.738 25.66L224.138 25.9L228.638 22.9L229.418 23.9L227.158 25.5C226.692 25.8333 226.285 26.1133 225.938 26.34C225.605 26.5533 225.298 26.7267 225.018 26.86C224.752 26.9933 224.512 27.0867 224.298 27.14C224.085 27.2067 223.878 27.24 223.678 27.24ZM237.691 14.38C237.264 14.38 236.964 14.3 236.791 14.14C236.617 13.98 236.531 13.7933 236.531 13.58C236.531 13.5 236.537 13.4133 236.551 13.32C236.564 13.2267 236.584 13.12 236.611 13C236.664 12.6933 236.797 12.46 237.011 12.3C237.224 12.1267 237.531 12.04 237.931 12.04C238.357 12.04 238.657 12.12 238.831 12.28C239.004 12.44 239.091 12.6267 239.091 12.84C239.091 12.92 239.084 13.0067 239.071 13.1C239.057 13.1933 239.037 13.3 239.011 13.42C238.957 13.7267 238.824 13.9667 238.611 14.14C238.397 14.3 238.091 14.38 237.691 14.38ZM236.331 27.24C235.824 27.24 235.437 27.1133 235.171 26.86C234.917 26.5933 234.791 26.26 234.791 25.86C234.791 25.7267 234.797 25.5933 234.811 25.46C234.837 25.3133 234.864 25.18 234.891 25.06L236.251 18.02H232.531L232.751 16.68H238.071L236.331 25.68L236.791 25.86L240.731 22.46L241.671 23.34L239.851 25.02C239.384 25.46 238.977 25.82 238.631 26.1C238.297 26.38 237.997 26.6067 237.731 26.78C237.464 26.9533 237.217 27.0733 236.991 27.14C236.777 27.2067 236.557 27.24 236.331 27.24ZM248.183 27.24C247.516 27.24 246.929 27.1333 246.423 26.92C245.929 26.7067 245.516 26.4133 245.183 26.04C244.849 25.6533 244.596 25.1933 244.423 24.66C244.249 24.1133 244.163 23.52 244.163 22.88C244.163 21.8933 244.303 21.0067 244.583 20.22C244.863 19.42 245.243 18.74 245.723 18.18C246.216 17.62 246.789 17.1933 247.443 16.9C248.096 16.5933 248.803 16.44 249.563 16.44C250.229 16.44 250.816 16.5467 251.323 16.76C251.829 16.9733 252.249 17.2733 252.583 17.66C252.929 18.0333 253.183 18.4933 253.343 19.04C253.516 19.5733 253.603 20.16 253.603 20.8C253.603 21.7867 253.463 22.68 253.183 23.48C252.903 24.2667 252.516 24.94 252.023 25.5C251.543 26.06 250.969 26.4933 250.303 26.8C249.649 27.0933 248.943 27.24 248.183 27.24ZM248.263 25.88C249.236 25.88 250.009 25.5867 250.583 25C251.169 24.4 251.549 23.5867 251.723 22.56L251.923 21.36C251.963 21.12 251.989 20.92 252.003 20.76C252.016 20.6 252.023 20.46 252.023 20.34C252.023 19.46 251.796 18.82 251.343 18.42C250.889 18.0067 250.276 17.8 249.503 17.8C248.529 17.8 247.749 18.1 247.163 18.7C246.589 19.2867 246.216 20.0933 246.043 21.12L245.843 22.32C245.803 22.56 245.776 22.76 245.763 22.92C245.749 23.08 245.743 23.22 245.743 23.34C245.743 24.22 245.969 24.8667 246.423 25.28C246.876 25.68 247.489 25.88 248.263 25.88ZM256.055 27L257.775 16.68H259.335L258.935 19.12H259.015C259.402 18.2933 259.862 17.64 260.395 17.16C260.928 16.68 261.615 16.44 262.455 16.44C263.322 16.44 264.002 16.7 264.495 17.22C265.002 17.74 265.255 18.4733 265.255 19.42C265.255 19.62 265.242 19.84 265.215 20.08C265.202 20.3067 265.175 20.5333 265.135 20.76L264.095 27H262.535L263.555 20.9C263.595 20.66 263.622 20.4467 263.635 20.26C263.648 20.06 263.655 19.9067 263.655 19.8C263.655 19.1867 263.515 18.7067 263.235 18.36C262.955 18 262.522 17.82 261.935 17.82C261.482 17.82 261.075 17.92 260.715 18.12C260.368 18.32 260.048 18.5933 259.755 18.94C259.702 19.0067 259.615 19.1133 259.495 19.26C259.388 19.3933 259.275 19.5667 259.155 19.78C259.035 19.98 258.922 20.2133 258.815 20.48C258.708 20.7333 258.628 21.0067 258.575 21.3L257.615 27H256.055Z" fill="#005491"/>
<path d="M63 30.4H146.953V31.6H63V30.4Z" fill="#E66E00"/>
<path d="M146.945 30.4H266.875V31.6H146.945V30.4Z" fill="#005491"/>
<path d="M20.84 59.12C20.2667 59.12 19.7867 59.0133 19.4 58.8C19.02 58.58 18.6933 58.29 18.42 57.93L18.87 57.56C19.1167 57.8867 19.3933 58.14 19.7 58.32C20.0133 58.5 20.4 58.59 20.86 58.59C21.4 58.59 21.8133 58.4633 22.1 58.21C22.3933 57.95 22.54 57.59 22.54 57.13C22.54 56.7033 22.4167 56.39 22.17 56.19C21.9233 55.99 21.5767 55.8433 21.13 55.75L20.51 55.62C19.8433 55.4867 19.36 55.2633 19.06 54.95C18.76 54.6367 18.61 54.2367 18.61 53.75C18.61 53.4433 18.6633 53.1767 18.77 52.95C18.8767 52.7167 19.0267 52.5233 19.22 52.37C19.42 52.2167 19.6567 52.1 19.93 52.02C20.21 51.94 20.5167 51.9 20.85 51.9C21.37 51.9 21.81 51.9933 22.17 52.18C22.53 52.3667 22.8267 52.63 23.06 52.97L22.61 53.3C22.4167 53.02 22.1733 52.8067 21.88 52.66C21.5933 52.5067 21.24 52.43 20.82 52.43C20.32 52.43 19.9233 52.54 19.63 52.76C19.3433 52.9733 19.2 53.2967 19.2 53.73C19.2 54.1433 19.33 54.4467 19.59 54.64C19.85 54.8333 20.1967 54.9733 20.63 55.06L21.25 55.19C21.9433 55.3433 22.43 55.58 22.71 55.9C22.99 56.22 23.13 56.62 23.13 57.1C23.13 57.74 22.9267 58.2367 22.52 58.59C22.1133 58.9433 21.5533 59.12 20.84 59.12ZM26.4336 59.12C26.0936 59.12 25.7869 59.06 25.5136 58.94C25.2403 58.82 25.0069 58.6467 24.8136 58.42C24.6203 58.1867 24.4703 57.9033 24.3636 57.57C24.2569 57.2367 24.2036 56.86 24.2036 56.44C24.2036 56.02 24.2569 55.6467 24.3636 55.32C24.4703 54.9867 24.6203 54.7067 24.8136 54.48C25.0069 54.2467 25.2403 54.07 25.5136 53.95C25.7869 53.8233 26.0936 53.76 26.4336 53.76C26.7736 53.76 27.0803 53.8233 27.3536 53.95C27.6269 54.07 27.8603 54.2467 28.0536 54.48C28.2469 54.7067 28.3969 54.9867 28.5036 55.32C28.6103 55.6467 28.6636 56.02 28.6636 56.44C28.6636 56.86 28.6103 57.2367 28.5036 57.57C28.3969 57.9033 28.2469 58.1867 28.0536 58.42C27.8603 58.6467 27.6269 58.82 27.3536 58.94C27.0803 59.06 26.7736 59.12 26.4336 59.12ZM26.4336 58.61C26.9336 58.61 27.3269 58.4533 27.6136 58.14C27.9069 57.8267 28.0536 57.3667 28.0536 56.76V56.12C28.0536 55.52 27.9069 55.0633 27.6136 54.75C27.3269 54.43 26.9336 54.27 26.4336 54.27C25.9336 54.27 25.5369 54.4267 25.2436 54.74C24.9569 55.0533 24.8136 55.5133 24.8136 56.12V56.76C24.8136 57.36 24.9569 57.82 25.2436 58.14C25.5369 58.4533 25.9336 58.61 26.4336 58.61ZM30.1116 59V53.88H30.6816V54.69H30.7116C30.765 54.5633 30.8316 54.4467 30.9116 54.34C30.9916 54.2267 31.0883 54.1267 31.2016 54.04C31.315 53.9533 31.4483 53.8867 31.6016 53.84C31.7616 53.7867 31.9483 53.76 32.1616 53.76C32.5283 53.76 32.8516 53.8467 33.1316 54.02C33.4116 54.1933 33.615 54.4667 33.7416 54.84H33.7716C33.865 54.54 34.0416 54.2867 34.3016 54.08C34.5683 53.8667 34.9283 53.76 35.3816 53.76C35.9283 53.76 36.3483 53.93 36.6416 54.27C36.935 54.6033 37.0816 55.0833 37.0816 55.71V59H36.5116V55.81C36.5116 54.7833 36.0816 54.27 35.2216 54.27C35.0416 54.27 34.8716 54.2933 34.7116 54.34C34.5516 54.3867 34.4083 54.46 34.2816 54.56C34.1616 54.6533 34.065 54.7733 33.9916 54.92C33.9183 55.06 33.8816 55.2233 33.8816 55.41V59H33.3116V55.81C33.3116 54.7833 32.885 54.27 32.0316 54.27C31.8583 54.27 31.6883 54.2933 31.5216 54.34C31.3616 54.3867 31.2183 54.4567 31.0916 54.55C30.965 54.6433 30.865 54.7633 30.7916 54.91C30.7183 55.05 30.6816 55.2133 30.6816 55.4V59H30.1116ZM40.7014 59.12C40.3614 59.12 40.0514 59.06 39.7714 58.94C39.4981 58.82 39.2614 58.6467 39.0614 58.42C38.8681 58.1867 38.7181 57.9033 38.6114 57.57C38.5114 57.2367 38.4614 56.86 38.4614 56.44C38.4614 56.02 38.5114 55.6467 38.6114 55.32C38.7181 54.9867 38.8681 54.7067 39.0614 54.48C39.2614 54.2467 39.4981 54.07 39.7714 53.95C40.0447 53.8233 40.3514 53.76 40.6914 53.76C41.0181 53.76 41.3147 53.8233 41.5814 53.95C41.8481 54.07 42.0747 54.24 42.2614 54.46C42.4481 54.68 42.5914 54.9467 42.6914 55.26C42.7981 55.5667 42.8514 55.9067 42.8514 56.28V56.55H39.0614V56.8C39.0614 57.0667 39.0981 57.3133 39.1714 57.54C39.2514 57.76 39.3614 57.95 39.5014 58.11C39.6481 58.27 39.8247 58.3967 40.0314 58.49C40.2381 58.5767 40.4714 58.62 40.7314 58.62C41.4781 58.62 41.9947 58.2767 42.2814 57.59L42.7014 57.87C42.5414 58.25 42.2881 58.5533 41.9414 58.78C41.6014 59.0067 41.1881 59.12 40.7014 59.12ZM40.6914 54.24C40.4447 54.24 40.2214 54.2867 40.0214 54.38C39.8214 54.4667 39.6481 54.59 39.5014 54.75C39.3614 54.91 39.2514 55.1033 39.1714 55.33C39.0981 55.55 39.0614 55.7933 39.0614 56.06V56.11H42.2314V56.03C42.2314 55.7633 42.1947 55.52 42.1214 55.3C42.0481 55.0733 41.9414 54.8833 41.8014 54.73C41.6681 54.5767 41.5047 54.4567 41.3114 54.37C41.1247 54.2833 40.9181 54.24 40.6914 54.24ZM46.1211 59.12C45.7811 59.12 45.4744 59.06 45.2011 58.94C44.9278 58.82 44.6944 58.6467 44.5011 58.42C44.3078 58.1867 44.1578 57.9033 44.0511 57.57C43.9444 57.2367 43.8911 56.86 43.8911 56.44C43.8911 56.02 43.9444 55.6467 44.0511 55.32C44.1578 54.9867 44.3078 54.7067 44.5011 54.48C44.6944 54.2467 44.9278 54.07 45.2011 53.95C45.4744 53.8233 45.7811 53.76 46.1211 53.76C46.4611 53.76 46.7678 53.8233 47.0411 53.95C47.3144 54.07 47.5478 54.2467 47.7411 54.48C47.9344 54.7067 48.0844 54.9867 48.1911 55.32C48.2978 55.6467 48.3511 56.02 48.3511 56.44C48.3511 56.86 48.2978 57.2367 48.1911 57.57C48.0844 57.9033 47.9344 58.1867 47.7411 58.42C47.5478 58.6467 47.3144 58.82 47.0411 58.94C46.7678 59.06 46.4611 59.12 46.1211 59.12ZM46.1211 58.61C46.6211 58.61 47.0144 58.4533 47.3011 58.14C47.5944 57.8267 47.7411 57.3667 47.7411 56.76V56.12C47.7411 55.52 47.5944 55.0633 47.3011 54.75C47.0144 54.43 46.6211 54.27 46.1211 54.27C45.6211 54.27 45.2244 54.4267 44.9311 54.74C44.6444 55.0533 44.5011 55.5133 44.5011 56.12V56.76C44.5011 57.36 44.6444 57.82 44.9311 58.14C45.2244 58.4533 45.6211 58.61 46.1211 58.61ZM49.7991 59V53.88H50.3691V54.69H50.3991C50.5125 54.4233 50.6891 54.2033 50.9291 54.03C51.1691 53.85 51.4958 53.76 51.9091 53.76C52.4558 53.76 52.8791 53.93 53.1791 54.27C53.4858 54.6033 53.6391 55.0833 53.6391 55.71V59H53.0691V55.81C53.0691 55.29 52.9558 54.9033 52.7291 54.65C52.5091 54.3967 52.1858 54.27 51.7591 54.27C51.5791 54.27 51.4058 54.2933 51.2391 54.34C51.0725 54.3867 50.9225 54.4567 50.7891 54.55C50.6625 54.6433 50.5591 54.7633 50.4791 54.91C50.4058 55.05 50.3691 55.2133 50.3691 55.4V59H49.7991ZM57.2639 59.12C56.9239 59.12 56.6139 59.06 56.3339 58.94C56.0606 58.82 55.8239 58.6467 55.6239 58.42C55.4306 58.1867 55.2806 57.9033 55.1739 57.57C55.0739 57.2367 55.0239 56.86 55.0239 56.44C55.0239 56.02 55.0739 55.6467 55.1739 55.32C55.2806 54.9867 55.4306 54.7067 55.6239 54.48C55.8239 54.2467 56.0606 54.07 56.3339 53.95C56.6072 53.8233 56.9139 53.76 57.2539 53.76C57.5806 53.76 57.8772 53.8233 58.1439 53.95C58.4106 54.07 58.6372 54.24 58.8239 54.46C59.0106 54.68 59.1539 54.9467 59.2539 55.26C59.3606 55.5667 59.4139 55.9067 59.4139 56.28V56.55H55.6239V56.8C55.6239 57.0667 55.6606 57.3133 55.7339 57.54C55.8139 57.76 55.9239 57.95 56.0639 58.11C56.2106 58.27 56.3872 58.3967 56.5939 58.49C56.8006 58.5767 57.0339 58.62 57.2939 58.62C58.0406 58.62 58.5572 58.2767 58.8439 57.59L59.2639 57.87C59.1039 58.25 58.8506 58.5533 58.5039 58.78C58.1639 59.0067 57.7506 59.12 57.2639 59.12ZM57.2539 54.24C57.0072 54.24 56.7839 54.2867 56.5839 54.38C56.3839 54.4667 56.2106 54.59 56.0639 54.75C55.9239 54.91 55.8139 55.1033 55.7339 55.33C55.6606 55.55 55.6239 55.7933 55.6239 56.06V56.11H58.7939V56.03C58.7939 55.7633 58.7572 55.52 58.6839 55.3C58.6106 55.0733 58.5039 54.8833 58.3639 54.73C58.2306 54.5767 58.0672 54.4567 57.8739 54.37C57.6872 54.2833 57.4806 54.24 57.2539 54.24ZM63.5069 52.49C63.3735 52.49 63.2735 52.4567 63.2069 52.39C63.1469 52.3233 63.1169 52.2367 63.1169 52.13V52.03C63.1169 51.9233 63.1469 51.8367 63.2069 51.77C63.2735 51.7033 63.3735 51.67 63.5069 51.67C63.6402 51.67 63.7369 51.7033 63.7969 51.77C63.8635 51.8367 63.8969 51.9233 63.8969 52.03V52.13C63.8969 52.2367 63.8635 52.3233 63.7969 52.39C63.7369 52.4567 63.6402 52.49 63.5069 52.49ZM63.2269 53.88H63.7969V59H63.2269V53.88ZM65.6585 59V53.88H66.2285V54.69H66.2585C66.3718 54.4233 66.5485 54.2033 66.7885 54.03C67.0285 53.85 67.3552 53.76 67.7685 53.76C68.3152 53.76 68.7385 53.93 69.0385 54.27C69.3452 54.6033 69.4985 55.0833 69.4985 55.71V59H68.9285V55.81C68.9285 55.29 68.8152 54.9033 68.5885 54.65C68.3685 54.3967 68.0452 54.27 67.6185 54.27C67.4385 54.27 67.2652 54.2933 67.0985 54.34C66.9318 54.3867 66.7818 54.4567 66.6485 54.55C66.5218 54.6433 66.4185 54.7633 66.3385 54.91C66.2652 55.05 66.2285 55.2133 66.2285 55.4V59H65.6585ZM76.7166 53.88H77.2966L74.9266 60.44C74.8466 60.6533 74.7499 60.8 74.6366 60.88C74.5232 60.96 74.3366 61 74.0766 61H73.4966V60.5H74.3566L74.8466 59.15L72.9466 53.88H73.5466L75.1166 58.39H75.1566L76.7166 53.88ZM80.1934 59.12C79.8534 59.12 79.5467 59.06 79.2734 58.94C79 58.82 78.7667 58.6467 78.5734 58.42C78.38 58.1867 78.23 57.9033 78.1234 57.57C78.0167 57.2367 77.9634 56.86 77.9634 56.44C77.9634 56.02 78.0167 55.6467 78.1234 55.32C78.23 54.9867 78.38 54.7067 78.5734 54.48C78.7667 54.2467 79 54.07 79.2734 53.95C79.5467 53.8233 79.8534 53.76 80.1934 53.76C80.5334 53.76 80.84 53.8233 81.1134 53.95C81.3867 54.07 81.62 54.2467 81.8134 54.48C82.0067 54.7067 82.1567 54.9867 82.2634 55.32C82.37 55.6467 82.4234 56.02 82.4234 56.44C82.4234 56.86 82.37 57.2367 82.2634 57.57C82.1567 57.9033 82.0067 58.1867 81.8134 58.42C81.62 58.6467 81.3867 58.82 81.1134 58.94C80.84 59.06 80.5334 59.12 80.1934 59.12ZM80.1934 58.61C80.6934 58.61 81.0867 58.4533 81.3734 58.14C81.6667 57.8267 81.8134 57.3667 81.8134 56.76V56.12C81.8134 55.52 81.6667 55.0633 81.3734 54.75C81.0867 54.43 80.6934 54.27 80.1934 54.27C79.6934 54.27 79.2967 54.4267 79.0034 54.74C78.7167 55.0533 78.5734 55.5133 78.5734 56.12V56.76C78.5734 57.36 78.7167 57.82 79.0034 58.14C79.2967 58.4533 79.6934 58.61 80.1934 58.61ZM87.0714 58.19H87.0314C86.9847 58.31 86.9214 58.4267 86.8414 58.54C86.7614 58.6533 86.6614 58.7533 86.5414 58.84C86.4214 58.92 86.2781 58.9867 86.1114 59.04C85.9514 59.0933 85.7614 59.12 85.5414 59.12C84.9947 59.12 84.5681 58.9533 84.2614 58.62C83.9547 58.28 83.8014 57.7967 83.8014 57.17V53.88H84.3714V57.06C84.3714 57.5867 84.4847 57.9767 84.7114 58.23C84.9381 58.4833 85.2647 58.61 85.6914 58.61C85.8714 58.61 86.0414 58.5867 86.2014 58.54C86.3681 58.4933 86.5147 58.4233 86.6414 58.33C86.7747 58.2367 86.8781 58.12 86.9514 57.98C87.0314 57.8333 87.0714 57.6633 87.0714 57.47V53.88H87.6414V59H87.0714V58.19ZM89.5062 59V53.88H90.0762V54.8H90.1162C90.2162 54.56 90.3862 54.3467 90.6262 54.16C90.8662 53.9733 91.2062 53.88 91.6462 53.88H91.9862V54.44H91.5362C91.1095 54.44 90.7595 54.5333 90.4862 54.72C90.2128 54.9067 90.0762 55.1667 90.0762 55.5V59H89.5062ZM98.9637 59C98.7437 59 98.5837 58.9433 98.4837 58.83C98.3837 58.7167 98.327 58.5633 98.3137 58.37V58.19H98.2637C98.1503 58.4767 97.9637 58.7033 97.7037 58.87C97.4437 59.0367 97.1137 59.12 96.7137 59.12C96.1737 59.12 95.757 58.99 95.4637 58.73C95.1703 58.4633 95.0237 58.09 95.0237 57.61C95.0237 57.1567 95.1837 56.7967 95.5037 56.53C95.8303 56.2633 96.3637 56.13 97.1037 56.13H98.2837V55.53C98.2837 54.6833 97.847 54.26 96.9737 54.26C96.6337 54.26 96.3503 54.3333 96.1237 54.48C95.897 54.62 95.7137 54.8233 95.5737 55.09L95.2137 54.79C95.3537 54.49 95.567 54.2433 95.8537 54.05C96.147 53.8567 96.527 53.76 96.9937 53.76C97.5937 53.76 98.0537 53.91 98.3737 54.21C98.6937 54.51 98.8537 54.93 98.8537 55.47V58.5H99.5437V59H98.9637ZM96.7937 58.63C97.0003 58.63 97.1937 58.6033 97.3737 58.55C97.5537 58.4967 97.7103 58.4233 97.8437 58.33C97.9837 58.23 98.0903 58.1133 98.1637 57.98C98.2437 57.84 98.2837 57.6833 98.2837 57.51V56.56H97.0837C96.5703 56.56 96.197 56.6433 95.9637 56.81C95.737 56.97 95.6237 57.1933 95.6237 57.48V57.72C95.6237 58.02 95.7303 58.2467 95.9437 58.4C96.157 58.5533 96.4403 58.63 96.7937 58.63ZM104.027 58.18H103.997C103.864 58.4667 103.667 58.6967 103.407 58.87C103.154 59.0367 102.83 59.12 102.437 59.12C101.777 59.12 101.26 58.8867 100.887 58.42C100.514 57.9533 100.327 57.2933 100.327 56.44C100.327 55.5867 100.514 54.9267 100.887 54.46C101.26 53.9933 101.777 53.76 102.437 53.76C102.83 53.76 103.157 53.8467 103.417 54.02C103.677 54.1867 103.87 54.4133 103.997 54.7H104.027V51.6H104.597V59H104.027V58.18ZM102.567 58.61C102.767 58.61 102.954 58.5833 103.127 58.53C103.307 58.4767 103.464 58.4 103.597 58.3C103.73 58.1933 103.834 58.07 103.907 57.93C103.987 57.7833 104.027 57.62 104.027 57.44V55.41C104.027 55.2433 103.987 55.09 103.907 54.95C103.834 54.81 103.73 54.69 103.597 54.59C103.464 54.49 103.307 54.4133 103.127 54.36C102.954 54.3 102.767 54.27 102.567 54.27C102.054 54.27 101.654 54.4333 101.367 54.76C101.08 55.0867 100.937 55.5267 100.937 56.08V56.8C100.937 57.3533 101.08 57.7933 101.367 58.12C101.654 58.4467 102.054 58.61 102.567 58.61ZM109.769 58.18H109.739C109.606 58.4667 109.409 58.6967 109.149 58.87C108.896 59.0367 108.573 59.12 108.179 59.12C107.519 59.12 107.003 58.8867 106.629 58.42C106.256 57.9533 106.069 57.2933 106.069 56.44C106.069 55.5867 106.256 54.9267 106.629 54.46C107.003 53.9933 107.519 53.76 108.179 53.76C108.573 53.76 108.899 53.8467 109.159 54.02C109.419 54.1867 109.613 54.4133 109.739 54.7H109.769V51.6H110.339V59H109.769V58.18ZM108.309 58.61C108.509 58.61 108.696 58.5833 108.869 58.53C109.049 58.4767 109.206 58.4 109.339 58.3C109.473 58.1933 109.576 58.07 109.649 57.93C109.729 57.7833 109.769 57.62 109.769 57.44V55.41C109.769 55.2433 109.729 55.09 109.649 54.95C109.576 54.81 109.473 54.69 109.339 54.59C109.206 54.49 109.049 54.4133 108.869 54.36C108.696 54.3 108.509 54.27 108.309 54.27C107.796 54.27 107.396 54.4333 107.109 54.76C106.823 55.0867 106.679 55.5267 106.679 56.08V56.8C106.679 57.3533 106.823 57.7933 107.109 58.12C107.396 58.4467 107.796 58.61 108.309 58.61ZM112.201 59V53.88H112.771V54.8H112.811C112.911 54.56 113.081 54.3467 113.321 54.16C113.561 53.9733 113.901 53.88 114.341 53.88H114.681V54.44H114.231C113.805 54.44 113.455 54.5333 113.181 54.72C112.908 54.9067 112.771 55.1667 112.771 55.5V59H112.201ZM117.576 59.12C117.236 59.12 116.926 59.06 116.646 58.94C116.373 58.82 116.136 58.6467 115.936 58.42C115.743 58.1867 115.593 57.9033 115.486 57.57C115.386 57.2367 115.336 56.86 115.336 56.44C115.336 56.02 115.386 55.6467 115.486 55.32C115.593 54.9867 115.743 54.7067 115.936 54.48C116.136 54.2467 116.373 54.07 116.646 53.95C116.92 53.8233 117.226 53.76 117.566 53.76C117.893 53.76 118.19 53.8233 118.456 53.95C118.723 54.07 118.95 54.24 119.136 54.46C119.323 54.68 119.466 54.9467 119.566 55.26C119.673 55.5667 119.726 55.9067 119.726 56.28V56.55H115.936V56.8C115.936 57.0667 115.973 57.3133 116.046 57.54C116.126 57.76 116.236 57.95 116.376 58.11C116.523 58.27 116.7 58.3967 116.906 58.49C117.113 58.5767 117.346 58.62 117.606 58.62C118.353 58.62 118.87 58.2767 119.156 57.59L119.576 57.87C119.416 58.25 119.163 58.5533 118.816 58.78C118.476 59.0067 118.063 59.12 117.576 59.12ZM117.566 54.24C117.32 54.24 117.096 54.2867 116.896 54.38C116.696 54.4667 116.523 54.59 116.376 54.75C116.236 54.91 116.126 55.1033 116.046 55.33C115.973 55.55 115.936 55.7933 115.936 56.06V56.11H119.106V56.03C119.106 55.7633 119.07 55.52 118.996 55.3C118.923 55.0733 118.816 54.8833 118.676 54.73C118.543 54.5767 118.38 54.4567 118.186 54.37C118 54.2833 117.793 54.24 117.566 54.24ZM122.626 59.12C122.179 59.12 121.796 59.0367 121.476 58.87C121.163 58.7033 120.889 58.46 120.656 58.14L121.076 57.81C121.289 58.09 121.523 58.2967 121.776 58.43C122.029 58.5633 122.326 58.63 122.666 58.63C123.059 58.63 123.363 58.5467 123.576 58.38C123.789 58.2133 123.896 57.9733 123.896 57.66C123.896 57.3867 123.813 57.1733 123.646 57.02C123.486 56.86 123.219 56.7533 122.846 56.7L122.426 56.63C122.193 56.5967 121.979 56.5467 121.786 56.48C121.593 56.4133 121.426 56.3233 121.286 56.21C121.153 56.0967 121.046 55.96 120.966 55.8C120.893 55.6333 120.856 55.4333 120.856 55.2C120.856 54.96 120.899 54.75 120.986 54.57C121.079 54.39 121.203 54.24 121.356 54.12C121.509 54 121.693 53.91 121.906 53.85C122.119 53.79 122.349 53.76 122.596 53.76C123.023 53.76 123.373 53.8333 123.646 53.98C123.919 54.1267 124.153 54.3167 124.346 54.55L123.966 54.9C123.833 54.74 123.653 54.5933 123.426 54.46C123.206 54.32 122.919 54.25 122.566 54.25C122.199 54.25 121.913 54.33 121.706 54.49C121.506 54.65 121.406 54.8767 121.406 55.17C121.406 55.47 121.496 55.6867 121.676 55.82C121.863 55.9533 122.139 56.05 122.506 56.11L122.916 56.17C123.436 56.25 123.819 56.4067 124.066 56.64C124.319 56.8667 124.446 57.1867 124.446 57.6C124.446 58.08 124.283 58.4533 123.956 58.72C123.636 58.9867 123.193 59.12 122.626 59.12ZM127.314 59.12C126.867 59.12 126.484 59.0367 126.164 58.87C125.85 58.7033 125.577 58.46 125.344 58.14L125.764 57.81C125.977 58.09 126.21 58.2967 126.464 58.43C126.717 58.5633 127.014 58.63 127.354 58.63C127.747 58.63 128.05 58.5467 128.264 58.38C128.477 58.2133 128.584 57.9733 128.584 57.66C128.584 57.3867 128.5 57.1733 128.334 57.02C128.174 56.86 127.907 56.7533 127.534 56.7L127.114 56.63C126.88 56.5967 126.667 56.5467 126.474 56.48C126.28 56.4133 126.114 56.3233 125.974 56.21C125.84 56.0967 125.734 55.96 125.654 55.8C125.58 55.6333 125.544 55.4333 125.544 55.2C125.544 54.96 125.587 54.75 125.674 54.57C125.767 54.39 125.89 54.24 126.044 54.12C126.197 54 126.38 53.91 126.594 53.85C126.807 53.79 127.037 53.76 127.284 53.76C127.71 53.76 128.06 53.8333 128.334 53.98C128.607 54.1267 128.84 54.3167 129.034 54.55L128.654 54.9C128.52 54.74 128.34 54.5933 128.114 54.46C127.894 54.32 127.607 54.25 127.254 54.25C126.887 54.25 126.6 54.33 126.394 54.49C126.194 54.65 126.094 54.8767 126.094 55.17C126.094 55.47 126.184 55.6867 126.364 55.82C126.55 55.9533 126.827 56.05 127.194 56.11L127.604 56.17C128.124 56.25 128.507 56.4067 128.754 56.64C129.007 56.8667 129.134 57.1867 129.134 57.6C129.134 58.08 128.97 58.4533 128.644 58.72C128.324 58.9867 127.88 59.12 127.314 59.12ZM132.993 51.6H133.563V54.7H133.593C133.719 54.4133 133.913 54.1867 134.173 54.02C134.433 53.8467 134.759 53.76 135.153 53.76C135.813 53.76 136.329 53.9933 136.703 54.46C137.076 54.9267 137.263 55.5867 137.263 56.44C137.263 57.2933 137.076 57.9533 136.703 58.42C136.329 58.8867 135.813 59.12 135.153 59.12C134.759 59.12 134.436 59.0367 134.183 58.87C133.929 58.6967 133.733 58.4667 133.593 58.18H133.563V59H132.993V51.6ZM135.023 58.61C135.536 58.61 135.936 58.4467 136.223 58.12C136.509 57.7933 136.653 57.3533 136.653 56.8V56.08C136.653 55.5267 136.509 55.0867 136.223 54.76C135.936 54.4333 135.536 54.27 135.023 54.27C134.823 54.27 134.633 54.3 134.453 54.36C134.279 54.4133 134.126 54.49 133.993 54.59C133.859 54.69 133.753 54.81 133.673 54.95C133.599 55.09 133.563 55.2433 133.563 55.41V57.44C133.563 57.62 133.599 57.7833 133.673 57.93C133.753 58.07 133.859 58.1933 133.993 58.3C134.126 58.4 134.279 58.4767 134.453 58.53C134.633 58.5833 134.823 58.61 135.023 58.61ZM140.555 59.12C140.215 59.12 139.908 59.06 139.635 58.94C139.361 58.82 139.128 58.6467 138.935 58.42C138.741 58.1867 138.591 57.9033 138.485 57.57C138.378 57.2367 138.325 56.86 138.325 56.44C138.325 56.02 138.378 55.6467 138.485 55.32C138.591 54.9867 138.741 54.7067 138.935 54.48C139.128 54.2467 139.361 54.07 139.635 53.95C139.908 53.8233 140.215 53.76 140.555 53.76C140.895 53.76 141.201 53.8233 141.475 53.95C141.748 54.07 141.981 54.2467 142.175 54.48C142.368 54.7067 142.518 54.9867 142.625 55.32C142.731 55.6467 142.785 56.02 142.785 56.44C142.785 56.86 142.731 57.2367 142.625 57.57C142.518 57.9033 142.368 58.1867 142.175 58.42C141.981 58.6467 141.748 58.82 141.475 58.94C141.201 59.06 140.895 59.12 140.555 59.12ZM140.555 58.61C141.055 58.61 141.448 58.4533 141.735 58.14C142.028 57.8267 142.175 57.3667 142.175 56.76V56.12C142.175 55.52 142.028 55.0633 141.735 54.75C141.448 54.43 141.055 54.27 140.555 54.27C140.055 54.27 139.658 54.4267 139.365 54.74C139.078 55.0533 138.935 55.5133 138.935 56.12V56.76C138.935 57.36 139.078 57.82 139.365 58.14C139.658 58.4533 140.055 58.61 140.555 58.61ZM146.053 59.12C145.713 59.12 145.406 59.06 145.133 58.94C144.859 58.82 144.626 58.6467 144.433 58.42C144.239 58.1867 144.089 57.9033 143.983 57.57C143.876 57.2367 143.823 56.86 143.823 56.44C143.823 56.02 143.876 55.6467 143.983 55.32C144.089 54.9867 144.239 54.7067 144.433 54.48C144.626 54.2467 144.859 54.07 145.133 53.95C145.406 53.8233 145.713 53.76 146.053 53.76C146.393 53.76 146.699 53.8233 146.973 53.95C147.246 54.07 147.479 54.2467 147.673 54.48C147.866 54.7067 148.016 54.9867 148.123 55.32C148.229 55.6467 148.283 56.02 148.283 56.44C148.283 56.86 148.229 57.2367 148.123 57.57C148.016 57.9033 147.866 58.1867 147.673 58.42C147.479 58.6467 147.246 58.82 146.973 58.94C146.699 59.06 146.393 59.12 146.053 59.12ZM146.053 58.61C146.553 58.61 146.946 58.4533 147.233 58.14C147.526 57.8267 147.673 57.3667 147.673 56.76V56.12C147.673 55.52 147.526 55.0633 147.233 54.75C146.946 54.43 146.553 54.27 146.053 54.27C145.553 54.27 145.156 54.4267 144.863 54.74C144.576 55.0533 144.433 55.5133 144.433 56.12V56.76C144.433 57.36 144.576 57.82 144.863 58.14C145.156 58.4533 145.553 58.61 146.053 58.61ZM149.731 51.6H150.301V56.49H150.331L151.131 55.64L152.831 53.88H153.531L151.521 55.96L153.751 59H153.051L151.111 56.32L150.301 57.14V59H149.731V51.6Z" fill="#6B6492"/>
<path d="M176.99 59V52.02H179.73C180.337 52.02 180.8 52.1967 181.12 52.55C181.44 52.8967 181.6 53.37 181.6 53.97C181.6 54.5767 181.44 55.0567 181.12 55.41C180.8 55.7567 180.337 55.93 179.73 55.93H177.59V59H176.99ZM177.59 55.4H179.73C180.13 55.4 180.433 55.29 180.64 55.07C180.853 54.8433 180.96 54.5567 180.96 54.21V53.73C180.96 53.39 180.853 53.11 180.64 52.89C180.433 52.6633 180.13 52.55 179.73 52.55H177.59V55.4ZM186.397 59C186.177 59 186.017 58.9433 185.917 58.83C185.817 58.7167 185.761 58.5633 185.747 58.37V58.19H185.697C185.584 58.4767 185.397 58.7033 185.137 58.87C184.877 59.0367 184.547 59.12 184.147 59.12C183.607 59.12 183.191 58.99 182.897 58.73C182.604 58.4633 182.457 58.09 182.457 57.61C182.457 57.1567 182.617 56.7967 182.937 56.53C183.264 56.2633 183.797 56.13 184.537 56.13H185.717V55.53C185.717 54.6833 185.281 54.26 184.407 54.26C184.067 54.26 183.784 54.3333 183.557 54.48C183.331 54.62 183.147 54.8233 183.007 55.09L182.647 54.79C182.787 54.49 183.001 54.2433 183.287 54.05C183.581 53.8567 183.961 53.76 184.427 53.76C185.027 53.76 185.487 53.91 185.807 54.21C186.127 54.51 186.287 54.93 186.287 55.47V58.5H186.977V59H186.397ZM184.227 58.63C184.434 58.63 184.627 58.6033 184.807 58.55C184.987 58.4967 185.144 58.4233 185.277 58.33C185.417 58.23 185.524 58.1133 185.597 57.98C185.677 57.84 185.717 57.6833 185.717 57.51V56.56H184.517C184.004 56.56 183.631 56.6433 183.397 56.81C183.171 56.97 183.057 57.1933 183.057 57.48V57.72C183.057 58.02 183.164 58.2467 183.377 58.4C183.591 58.5533 183.874 58.63 184.227 58.63ZM189.05 59C188.844 59 188.687 58.9433 188.58 58.83C188.474 58.7167 188.42 58.5633 188.42 58.37V54.38H187.53V53.88H188.11C188.25 53.88 188.344 53.8533 188.39 53.8C188.444 53.74 188.47 53.6367 188.47 53.49V52.45H188.99V53.88H190.15V54.38H188.99V58.5H190.07V59H189.05ZM191.52 51.6H192.09V54.69H192.12C192.233 54.4233 192.41 54.2033 192.65 54.03C192.89 53.85 193.217 53.76 193.63 53.76C194.177 53.76 194.6 53.93 194.9 54.27C195.207 54.6033 195.36 55.0833 195.36 55.71V59H194.79V55.81C194.79 55.29 194.677 54.9033 194.45 54.65C194.23 54.3967 193.907 54.27 193.48 54.27C193.3 54.27 193.127 54.2933 192.96 54.34C192.793 54.3867 192.643 54.4567 192.51 54.55C192.383 54.6433 192.28 54.7633 192.2 54.91C192.127 55.05 192.09 55.2133 192.09 55.4V59H191.52V51.6ZM200.398 59C200.191 59 200.035 58.9433 199.928 58.83C199.821 58.7167 199.768 58.5633 199.768 58.37V54.38H198.878V53.88H199.458C199.598 53.88 199.691 53.8533 199.738 53.8C199.791 53.74 199.818 53.6367 199.818 53.49V52.45H200.338V53.88H201.498V54.38H200.338V58.5H201.418V59H200.398ZM204.648 59.12C204.308 59.12 204.002 59.06 203.728 58.94C203.455 58.82 203.222 58.6467 203.028 58.42C202.835 58.1867 202.685 57.9033 202.578 57.57C202.472 57.2367 202.418 56.86 202.418 56.44C202.418 56.02 202.472 55.6467 202.578 55.32C202.685 54.9867 202.835 54.7067 203.028 54.48C203.222 54.2467 203.455 54.07 203.728 53.95C204.002 53.8233 204.308 53.76 204.648 53.76C204.988 53.76 205.295 53.8233 205.568 53.95C205.842 54.07 206.075 54.2467 206.268 54.48C206.462 54.7067 206.612 54.9867 206.718 55.32C206.825 55.6467 206.878 56.02 206.878 56.44C206.878 56.86 206.825 57.2367 206.718 57.57C206.612 57.9033 206.462 58.1867 206.268 58.42C206.075 58.6467 205.842 58.82 205.568 58.94C205.295 59.06 204.988 59.12 204.648 59.12ZM204.648 58.61C205.148 58.61 205.542 58.4533 205.828 58.14C206.122 57.8267 206.268 57.3667 206.268 56.76V56.12C206.268 55.52 206.122 55.0633 205.828 54.75C205.542 54.43 205.148 54.27 204.648 54.27C204.148 54.27 203.752 54.4267 203.458 54.74C203.172 55.0533 203.028 55.5133 203.028 56.12V56.76C203.028 57.36 203.172 57.82 203.458 58.14C203.752 58.4533 204.148 58.61 204.648 58.61ZM211.57 59C211.363 59 211.206 58.9433 211.1 58.83C210.993 58.7167 210.94 58.5633 210.94 58.37V54.38H210.05V53.88H210.63C210.77 53.88 210.863 53.8533 210.91 53.8C210.963 53.74 210.99 53.6367 210.99 53.49V52.45H211.51V53.88H212.67V54.38H211.51V58.5H212.59V59H211.57ZM214.039 51.6H214.609V54.69H214.639C214.753 54.4233 214.929 54.2033 215.169 54.03C215.409 53.85 215.736 53.76 216.149 53.76C216.696 53.76 217.119 53.93 217.419 54.27C217.726 54.6033 217.879 55.0833 217.879 55.71V59H217.309V55.81C217.309 55.29 217.196 54.9033 216.969 54.65C216.749 54.3967 216.426 54.27 215.999 54.27C215.819 54.27 215.646 54.2933 215.479 54.34C215.313 54.3867 215.163 54.4567 215.029 54.55C214.903 54.6433 214.799 54.7633 214.719 54.91C214.646 55.05 214.609 55.2133 214.609 55.4V59H214.039V51.6ZM221.504 59.12C221.164 59.12 220.854 59.06 220.574 58.94C220.301 58.82 220.064 58.6467 219.864 58.42C219.671 58.1867 219.521 57.9033 219.414 57.57C219.314 57.2367 219.264 56.86 219.264 56.44C219.264 56.02 219.314 55.6467 219.414 55.32C219.521 54.9867 219.671 54.7067 219.864 54.48C220.064 54.2467 220.301 54.07 220.574 53.95C220.847 53.8233 221.154 53.76 221.494 53.76C221.821 53.76 222.117 53.8233 222.384 53.95C222.651 54.07 222.877 54.24 223.064 54.46C223.251 54.68 223.394 54.9467 223.494 55.26C223.601 55.5667 223.654 55.9067 223.654 56.28V56.55H219.864V56.8C219.864 57.0667 219.901 57.3133 219.974 57.54C220.054 57.76 220.164 57.95 220.304 58.11C220.451 58.27 220.627 58.3967 220.834 58.49C221.041 58.5767 221.274 58.62 221.534 58.62C222.281 58.62 222.797 58.2767 223.084 57.59L223.504 57.87C223.344 58.25 223.091 58.5533 222.744 58.78C222.404 59.0067 221.991 59.12 221.504 59.12ZM221.494 54.24C221.247 54.24 221.024 54.2867 220.824 54.38C220.624 54.4667 220.451 54.59 220.304 54.75C220.164 54.91 220.054 55.1033 219.974 55.33C219.901 55.55 219.864 55.7933 219.864 56.06V56.11H223.034V56.03C223.034 55.7633 222.997 55.52 222.924 55.3C222.851 55.0733 222.744 54.8833 222.604 54.73C222.471 54.5767 222.307 54.4567 222.114 54.37C221.927 54.2833 221.721 54.24 221.494 54.24ZM225.384 52.49C225.25 52.49 225.15 52.4567 225.084 52.39C225.024 52.3233 224.994 52.2367 224.994 52.13V52.03C224.994 51.9233 225.024 51.8367 225.084 51.77C225.15 51.7033 225.25 51.67 225.384 51.67C225.517 51.67 225.614 51.7033 225.674 51.77C225.74 51.8367 225.774 51.9233 225.774 52.03V52.13C225.774 52.2367 225.74 52.3233 225.674 52.39C225.614 52.4567 225.517 52.49 225.384 52.49ZM225.104 53.88H225.674V59H225.104V53.88ZM227.535 59V53.88H228.105V54.8H228.145C228.245 54.56 228.415 54.3467 228.655 54.16C228.895 53.9733 229.235 53.88 229.675 53.88H230.015V54.44H229.565C229.139 54.44 228.789 54.5333 228.515 54.72C228.242 54.9067 228.105 55.1667 228.105 55.5V59H227.535ZM233.473 53.88H234.043V54.7H234.073C234.2 54.4133 234.393 54.1867 234.653 54.02C234.913 53.8467 235.24 53.76 235.633 53.76C236.293 53.76 236.81 53.9933 237.183 54.46C237.556 54.9267 237.743 55.5867 237.743 56.44C237.743 57.2933 237.556 57.9533 237.183 58.42C236.81 58.8867 236.293 59.12 235.633 59.12C235.24 59.12 234.916 59.0367 234.663 58.87C234.41 58.6967 234.213 58.4667 234.073 58.18H234.043V61H233.473V53.88ZM235.503 58.61C236.016 58.61 236.416 58.4467 236.703 58.12C236.99 57.7933 237.133 57.3533 237.133 56.8V56.08C237.133 55.5267 236.99 55.0867 236.703 54.76C236.416 54.4333 236.016 54.27 235.503 54.27C235.303 54.27 235.113 54.3 234.933 54.36C234.76 54.4133 234.606 54.49 234.473 54.59C234.34 54.69 234.233 54.81 234.153 54.95C234.08 55.09 234.043 55.2433 234.043 55.41V57.44C234.043 57.62 234.08 57.7833 234.153 57.93C234.233 58.07 234.34 58.1933 234.473 58.3C234.606 58.4 234.76 58.4767 234.933 58.53C235.113 58.5833 235.303 58.61 235.503 58.61ZM242.415 58.19H242.375C242.328 58.31 242.265 58.4267 242.185 58.54C242.105 58.6533 242.005 58.7533 241.885 58.84C241.765 58.92 241.622 58.9867 241.455 59.04C241.295 59.0933 241.105 59.12 240.885 59.12C240.338 59.12 239.912 58.9533 239.605 58.62C239.298 58.28 239.145 57.7967 239.145 57.17V53.88H239.715V57.06C239.715 57.5867 239.828 57.9767 240.055 58.23C240.282 58.4833 240.608 58.61 241.035 58.61C241.215 58.61 241.385 58.5867 241.545 58.54C241.712 58.4933 241.858 58.4233 241.985 58.33C242.118 58.2367 242.222 58.12 242.295 57.98C242.375 57.8333 242.415 57.6633 242.415 57.47V53.88H242.985V59H242.415V58.19ZM244.85 51.6H245.42V54.7H245.45C245.577 54.4133 245.77 54.1867 246.03 54.02C246.29 53.8467 246.617 53.76 247.01 53.76C247.67 53.76 248.187 53.9933 248.56 54.46C248.933 54.9267 249.12 55.5867 249.12 56.44C249.12 57.2933 248.933 57.9533 248.56 58.42C248.187 58.8867 247.67 59.12 247.01 59.12C246.617 59.12 246.293 59.0367 246.04 58.87C245.787 58.6967 245.59 58.4667 245.45 58.18H245.42V59H244.85V51.6ZM246.88 58.61C247.393 58.61 247.793 58.4467 248.08 58.12C248.367 57.7933 248.51 57.3533 248.51 56.8V56.08C248.51 55.5267 248.367 55.0867 248.08 54.76C247.793 54.4333 247.393 54.27 246.88 54.27C246.68 54.27 246.49 54.3 246.31 54.36C246.137 54.4133 245.983 54.49 245.85 54.59C245.717 54.69 245.61 54.81 245.53 54.95C245.457 55.09 245.42 55.2433 245.42 55.41V57.44C245.42 57.62 245.457 57.7833 245.53 57.93C245.61 58.07 245.717 58.1933 245.85 58.3C245.983 58.4 246.137 58.4767 246.31 58.53C246.49 58.5833 246.68 58.61 246.88 58.61ZM251.222 59C251.015 59 250.859 58.9433 250.752 58.83C250.645 58.7167 250.592 58.5667 250.592 58.38V51.6H251.162V58.5H251.952V59H251.222ZM253.509 52.49C253.375 52.49 253.275 52.4567 253.209 52.39C253.149 52.3233 253.119 52.2367 253.119 52.13V52.03C253.119 51.9233 253.149 51.8367 253.209 51.77C253.275 51.7033 253.375 51.67 253.509 51.67C253.642 51.67 253.739 51.7033 253.799 51.77C253.865 51.8367 253.899 51.9233 253.899 52.03V52.13C253.899 52.2367 253.865 52.3233 253.799 52.39C253.739 52.4567 253.642 52.49 253.509 52.49ZM253.229 53.88H253.799V59H253.229V53.88ZM257.11 59.12C256.664 59.12 256.28 59.0367 255.96 58.87C255.647 58.7033 255.374 58.46 255.14 58.14L255.56 57.81C255.774 58.09 256.007 58.2967 256.26 58.43C256.514 58.5633 256.81 58.63 257.15 58.63C257.544 58.63 257.847 58.5467 258.06 58.38C258.274 58.2133 258.38 57.9733 258.38 57.66C258.38 57.3867 258.297 57.1733 258.13 57.02C257.97 56.86 257.704 56.7533 257.33 56.7L256.91 56.63C256.677 56.5967 256.464 56.5467 256.27 56.48C256.077 56.4133 255.91 56.3233 255.77 56.21C255.637 56.0967 255.53 55.96 255.45 55.8C255.377 55.6333 255.34 55.4333 255.34 55.2C255.34 54.96 255.384 54.75 255.47 54.57C255.564 54.39 255.687 54.24 255.84 54.12C255.994 54 256.177 53.91 256.39 53.85C256.604 53.79 256.834 53.76 257.08 53.76C257.507 53.76 257.857 53.8333 258.13 53.98C258.404 54.1267 258.637 54.3167 258.83 54.55L258.45 54.9C258.317 54.74 258.137 54.5933 257.91 54.46C257.69 54.32 257.404 54.25 257.05 54.25C256.684 54.25 256.397 54.33 256.19 54.49C255.99 54.65 255.89 54.8767 255.89 55.17C255.89 55.47 255.98 55.6867 256.16 55.82C256.347 55.9533 256.624 56.05 256.99 56.11L257.4 56.17C257.92 56.25 258.304 56.4067 258.55 56.64C258.804 56.8667 258.93 57.1867 258.93 57.6C258.93 58.08 258.767 58.4533 258.44 58.72C258.12 58.9867 257.677 59.12 257.11 59.12ZM260.426 51.6H260.996V54.69H261.026C261.139 54.4233 261.316 54.2033 261.556 54.03C261.796 53.85 262.123 53.76 262.536 53.76C263.083 53.76 263.506 53.93 263.806 54.27C264.113 54.6033 264.266 55.0833 264.266 55.71V59H263.696V55.81C263.696 55.29 263.583 54.9033 263.356 54.65C263.136 54.3967 262.813 54.27 262.386 54.27C262.206 54.27 262.033 54.2933 261.866 54.34C261.699 54.3867 261.549 54.4567 261.416 54.55C261.289 54.6433 261.186 54.7633 261.106 54.91C261.033 55.05 260.996 55.2133 260.996 55.4V59H260.426V51.6ZM267.891 59.12C267.551 59.12 267.241 59.06 266.961 58.94C266.688 58.82 266.451 58.6467 266.251 58.42C266.058 58.1867 265.908 57.9033 265.801 57.57C265.701 57.2367 265.651 56.86 265.651 56.44C265.651 56.02 265.701 55.6467 265.801 55.32C265.908 54.9867 266.058 54.7067 266.251 54.48C266.451 54.2467 266.688 54.07 266.961 53.95C267.234 53.8233 267.541 53.76 267.881 53.76C268.208 53.76 268.504 53.8233 268.771 53.95C269.038 54.07 269.264 54.24 269.451 54.46C269.638 54.68 269.781 54.9467 269.881 55.26C269.988 55.5667 270.041 55.9067 270.041 56.28V56.55H266.251V56.8C266.251 57.0667 266.288 57.3133 266.361 57.54C266.441 57.76 266.551 57.95 266.691 58.11C266.838 58.27 267.014 58.3967 267.221 58.49C267.428 58.5767 267.661 58.62 267.921 58.62C268.668 58.62 269.184 58.2767 269.471 57.59L269.891 57.87C269.731 58.25 269.478 58.5533 269.131 58.78C268.791 59.0067 268.378 59.12 267.891 59.12ZM267.881 54.24C267.634 54.24 267.411 54.2867 267.211 54.38C267.011 54.4667 266.838 54.59 266.691 54.75C266.551 54.91 266.441 55.1033 266.361 55.33C266.288 55.55 266.251 55.7933 266.251 56.06V56.11H269.421V56.03C269.421 55.7633 269.384 55.52 269.311 55.3C269.238 55.0733 269.131 54.8833 268.991 54.73C268.858 54.5767 268.694 54.4567 268.501 54.37C268.314 54.2833 268.108 54.24 267.881 54.24ZM274.801 58.18H274.771C274.637 58.4667 274.441 58.6967 274.181 58.87C273.927 59.0367 273.604 59.12 273.211 59.12C272.551 59.12 272.034 58.8867 271.661 58.42C271.287 57.9533 271.101 57.2933 271.101 56.44C271.101 55.5867 271.287 54.9267 271.661 54.46C272.034 53.9933 272.551 53.76 273.211 53.76C273.604 53.76 273.931 53.8467 274.191 54.02C274.451 54.1867 274.644 54.4133 274.771 54.7H274.801V51.6H275.371V59H274.801V58.18ZM273.341 58.61C273.541 58.61 273.727 58.5833 273.901 58.53C274.081 58.4767 274.237 58.4 274.371 58.3C274.504 58.1933 274.607 58.07 274.681 57.93C274.761 57.7833 274.801 57.62 274.801 57.44V55.41C274.801 55.2433 274.761 55.09 274.681 54.95C274.607 54.81 274.504 54.69 274.371 54.59C274.237 54.49 274.081 54.4133 273.901 54.36C273.727 54.3 273.541 54.27 273.341 54.27C272.827 54.27 272.427 54.4333 272.141 54.76C271.854 55.0867 271.711 55.5267 271.711 56.08V56.8C271.711 57.3533 271.854 57.7933 272.141 58.12C272.427 58.4467 272.827 58.61 273.341 58.61ZM281.396 59.12C280.689 59.12 280.143 58.8867 279.756 58.42C279.376 57.9533 279.186 57.2933 279.186 56.44C279.186 55.5867 279.376 54.9267 279.756 54.46C280.143 53.9933 280.689 53.76 281.396 53.76C281.869 53.76 282.253 53.8633 282.546 54.07C282.839 54.2767 283.063 54.55 283.216 54.89L282.736 55.13C282.616 54.85 282.446 54.6367 282.226 54.49C282.013 54.3433 281.736 54.27 281.396 54.27C280.876 54.27 280.479 54.4367 280.206 54.77C279.933 55.1033 279.796 55.54 279.796 56.08V56.8C279.796 57.34 279.933 57.7767 280.206 58.11C280.479 58.4433 280.876 58.61 281.396 58.61C281.749 58.61 282.046 58.5333 282.286 58.38C282.526 58.2267 282.719 58.0067 282.866 57.72L283.286 58C283.119 58.34 282.879 58.6133 282.566 58.82C282.259 59.02 281.869 59.12 281.396 59.12ZM286.299 59.12C285.959 59.12 285.652 59.06 285.379 58.94C285.105 58.82 284.872 58.6467 284.679 58.42C284.485 58.1867 284.335 57.9033 284.229 57.57C284.122 57.2367 284.069 56.86 284.069 56.44C284.069 56.02 284.122 55.6467 284.229 55.32C284.335 54.9867 284.485 54.7067 284.679 54.48C284.872 54.2467 285.105 54.07 285.379 53.95C285.652 53.8233 285.959 53.76 286.299 53.76C286.639 53.76 286.945 53.8233 287.219 53.95C287.492 54.07 287.725 54.2467 287.919 54.48C288.112 54.7067 288.262 54.9867 288.369 55.32C288.475 55.6467 288.529 56.02 288.529 56.44C288.529 56.86 288.475 57.2367 288.369 57.57C288.262 57.9033 288.112 58.1867 287.919 58.42C287.725 58.6467 287.492 58.82 287.219 58.94C286.945 59.06 286.639 59.12 286.299 59.12ZM286.299 58.61C286.799 58.61 287.192 58.4533 287.479 58.14C287.772 57.8267 287.919 57.3667 287.919 56.76V56.12C287.919 55.52 287.772 55.0633 287.479 54.75C287.192 54.43 286.799 54.27 286.299 54.27C285.799 54.27 285.402 54.4267 285.109 54.74C284.822 55.0533 284.679 55.5133 284.679 56.12V56.76C284.679 57.36 284.822 57.82 285.109 58.14C285.402 58.4533 285.799 58.61 286.299 58.61ZM289.977 59V53.88H290.547V54.69H290.577C290.69 54.4233 290.867 54.2033 291.107 54.03C291.347 53.85 291.674 53.76 292.087 53.76C292.634 53.76 293.057 53.93 293.357 54.27C293.664 54.6033 293.817 55.0833 293.817 55.71V59H293.247V55.81C293.247 55.29 293.134 54.9033 292.907 54.65C292.687 54.3967 292.364 54.27 291.937 54.27C291.757 54.27 291.584 54.2933 291.417 54.34C291.25 54.3867 291.1 54.4567 290.967 54.55C290.84 54.6433 290.737 54.7633 290.657 54.91C290.584 55.05 290.547 55.2133 290.547 55.4V59H289.977ZM296.492 59C296.285 59 296.128 58.9433 296.022 58.83C295.915 58.7167 295.862 58.5633 295.862 58.37V54.38H294.972V53.88H295.552C295.692 53.88 295.785 53.8533 295.832 53.8C295.885 53.74 295.912 53.6367 295.912 53.49V52.45H296.432V53.88H297.592V54.38H296.432V58.5H297.512V59H296.492ZM300.752 59.12C300.412 59.12 300.102 59.06 299.822 58.94C299.549 58.82 299.312 58.6467 299.112 58.42C298.919 58.1867 298.769 57.9033 298.662 57.57C298.562 57.2367 298.512 56.86 298.512 56.44C298.512 56.02 298.562 55.6467 298.662 55.32C298.769 54.9867 298.919 54.7067 299.112 54.48C299.312 54.2467 299.549 54.07 299.822 53.95C300.096 53.8233 300.402 53.76 300.742 53.76C301.069 53.76 301.366 53.8233 301.632 53.95C301.899 54.07 302.126 54.24 302.312 54.46C302.499 54.68 302.642 54.9467 302.742 55.26C302.849 55.5667 302.902 55.9067 302.902 56.28V56.55H299.112V56.8C299.112 57.0667 299.149 57.3133 299.222 57.54C299.302 57.76 299.412 57.95 299.552 58.11C299.699 58.27 299.876 58.3967 300.082 58.49C300.289 58.5767 300.522 58.62 300.782 58.62C301.529 58.62 302.046 58.2767 302.332 57.59L302.752 57.87C302.592 58.25 302.339 58.5533 301.992 58.78C301.652 59.0067 301.239 59.12 300.752 59.12ZM300.742 54.24C300.496 54.24 300.272 54.2867 300.072 54.38C299.872 54.4667 299.699 54.59 299.552 54.75C299.412 54.91 299.302 55.1033 299.222 55.33C299.149 55.55 299.112 55.7933 299.112 56.06V56.11H302.282V56.03C302.282 55.7633 302.246 55.52 302.172 55.3C302.099 55.0733 301.992 54.8833 301.852 54.73C301.719 54.5767 301.556 54.4567 301.362 54.37C301.176 54.2833 300.969 54.24 300.742 54.24ZM304.352 59V53.88H304.922V54.69H304.952C305.065 54.4233 305.242 54.2033 305.482 54.03C305.722 53.85 306.049 53.76 306.462 53.76C307.009 53.76 307.432 53.93 307.732 54.27C308.039 54.6033 308.192 55.0833 308.192 55.71V59H307.622V55.81C307.622 55.29 307.509 54.9033 307.282 54.65C307.062 54.3967 306.739 54.27 306.312 54.27C306.132 54.27 305.959 54.2933 305.792 54.34C305.625 54.3867 305.475 54.4567 305.342 54.55C305.215 54.6433 305.112 54.7633 305.032 54.91C304.959 55.05 304.922 55.2133 304.922 55.4V59H304.352ZM310.867 59C310.66 59 310.503 58.9433 310.397 58.83C310.29 58.7167 310.237 58.5633 310.237 58.37V54.38H309.347V53.88H309.927C310.067 53.88 310.16 53.8533 310.207 53.8C310.26 53.74 310.287 53.6367 310.287 53.49V52.45H310.807V53.88H311.967V54.38H310.807V58.5H311.887V59H310.867Z" fill="#6B6492"/>
</svg>
