<svg width="80" height="80" viewBox="0 0 80 80" fill="none" xmlns="http://www.w3.org/2000/svg">
<path d="M56 46.9717C56 55.8268 48.8336 63 40 63C31.1664 63 24 55.8268 24 46.9717C24 44.9746 24.9385 42.1473 26.6009 38.8273C28.2293 35.5748 30.4213 32.1008 32.6442 28.8907C34.8623 25.6877 37.0843 22.7859 38.7539 20.6827C39.2162 20.1003 39.6355 19.58 40 19.1322C40.3645 19.58 40.7838 20.1003 41.2461 20.6827C42.9157 22.7859 45.1377 25.6877 47.3558 28.8907C49.5787 32.1008 51.7707 35.5748 53.3991 38.8273C55.0615 42.1473 56 44.9746 56 46.9717Z" stroke="black" stroke-width="4"/>
<path d="M48 47C48 51.4183 44.4183 55 40 55" stroke="black" stroke-width="4"/>
</svg>
