<svg width="128" height="128" viewBox="0 0 128 128" fill="none" xmlns="http://www.w3.org/2000/svg">
<path fill-rule="evenodd" clip-rule="evenodd" d="M16.6234 49.8194C20.8115 46.3336 27.3004 43 36.5322 43C42.0918 43 46.5577 45.469 50.1482 48.515C53.5477 51.399 56.5442 55.1391 59.1832 58.4331C59.2607 58.5298 59.3378 58.6261 59.4147 58.722C62.258 62.2697 64.7335 65.316 67.3862 67.5347C69.9452 69.675 72.2702 70.6978 74.7571 70.6978C78.5748 70.6978 81.0862 70.3794 83.0616 69.754C84.9503 69.1559 86.6212 68.1905 88.6056 66.4715C90.6839 64.6712 92.9762 62.1639 96.1652 58.4981C96.946 57.6006 97.7755 56.6397 98.6599 55.6152C99.3763 54.7853 100.129 53.9136 100.921 53L80.2979 53V43L117 43V80H107V61.2577C106.757 61.5396 106.516 61.8177 106.28 62.092C105.38 63.1343 104.527 64.1223 103.71 65.0616C100.554 68.6896 97.8354 71.7064 95.1531 74.03C92.3769 76.4348 89.5371 78.1929 86.0801 79.2875C82.7096 80.3546 79.0402 80.6978 74.7571 80.6978C69.143 80.6978 64.6209 78.2584 60.9706 75.2054C57.4497 72.2606 54.3802 68.4305 51.6933 65.0779L51.6115 64.9758C48.7569 61.414 46.3013 58.3652 43.679 56.1406C41.1478 53.9932 38.8981 53 36.5322 53C29.9129 53 25.6357 55.3289 23.0205 57.5055C21.6837 58.6182 20.7487 59.7212 20.1643 60.5164C19.8734 60.9122 19.6741 61.2254 19.5595 61.4159C19.5023 61.5109 19.4667 61.5745 19.4519 61.6016C19.4472 61.6102 19.4446 61.615 19.444 61.616C19.4437 61.6166 19.4441 61.6159 19.4452 61.6139L19.4534 61.5981L19.4603 61.5844L19.4645 61.5761L19.4668 61.5716C19.468 61.5693 19.4692 61.5669 15 59.3249C10.5308 57.0829 10.5321 57.0804 10.5333 57.0779L10.536 57.0726L10.5418 57.0613L10.555 57.0353C10.5646 57.0166 10.5757 56.9951 10.5884 56.9709C10.6138 56.9225 10.6454 56.8633 10.6835 56.7938C10.7596 56.655 10.8615 56.4754 10.9907 56.2607C11.2487 55.8319 11.617 55.2603 12.1064 54.5944C13.0826 53.2661 14.5585 51.538 16.6234 49.8194Z" fill="black"/>
</svg>
