<svg id="Layer_1" data-name="Layer 1" xmlns="http://www.w3.org/2000/svg" xmlns:xlink="http://www.w3.org/1999/xlink" viewBox="0 0 1000 1000"><defs><style>.cls-1{fill:url(#linear-gradient);}.cls-2{fill:url(#linear-gradient-2);}.cls-3{fill:url(#linear-gradient-3);}.cls-4{fill:url(#linear-gradient-4);}.cls-5{fill:url(#linear-gradient-5);}.cls-6{fill:url(#linear-gradient-6);}.cls-7{fill:url(#linear-gradient-7);}.cls-8{fill:url(#linear-gradient-8);}.cls-9{fill:url(#linear-gradient-9);}.cls-10{fill:url(#linear-gradient-11);}.cls-11{fill:url(#linear-gradient-13);}.cls-12{fill:url(#linear-gradient-15);}.cls-13{fill:url(#linear-gradient-17);}</style><linearGradient id="linear-gradient" x1="776.5" y1="191.71" x2="1330.72" y2="745.93" gradientUnits="userSpaceOnUse"><stop offset="0.03" stop-color="#ffa3ba"/><stop offset="0.13" stop-color="#e38aca"/><stop offset="0.22" stop-color="#c570db"/><stop offset="0.34" stop-color="#b57fdd"/><stop offset="0.56" stop-color="#8ba8e0"/><stop offset="0.88" stop-color="#48e8e7"/><stop offset="0.98" stop-color="#30ffe9"/></linearGradient><linearGradient id="linear-gradient-2" x1="-5.5" y1="387.69" x2="475.17" y2="868.35" gradientUnits="userSpaceOnUse"><stop offset="0" stop-color="#ffa3ba"/><stop offset="0.35" stop-color="#c570db"/><stop offset="0.45" stop-color="#b57fdd"/><stop offset="0.63" stop-color="#8ba8e0"/><stop offset="0.89" stop-color="#48e8e7"/><stop offset="0.98" stop-color="#30ffe9"/></linearGradient><linearGradient id="linear-gradient-3" x1="43.91" y1="338.28" x2="524.57" y2="818.94" xlink:href="#linear-gradient-2"/><linearGradient id="linear-gradient-4" x1="231.27" y1="150.92" x2="711.93" y2="631.58" xlink:href="#linear-gradient-2"/><linearGradient id="linear-gradient-5" x1="89.7" y1="292.49" x2="570.36" y2="773.15" xlink:href="#linear-gradient-2"/><linearGradient id="linear-gradient-6" x1="137.51" y1="244.67" x2="618.18" y2="725.34" xlink:href="#linear-gradient-2"/><linearGradient id="linear-gradient-7" x1="185.36" y1="196.82" x2="666.03" y2="677.49" xlink:href="#linear-gradient-2"/><linearGradient id="linear-gradient-8" x1="280.39" y1="101.8" x2="761.05" y2="582.47" xlink:href="#linear-gradient-2"/><linearGradient id="linear-gradient-9" x1="444.37" y1="519.94" x2="784.16" y2="859.72" xlink:href="#linear-gradient-2"/><linearGradient id="linear-gradient-11" x1="534.87" y1="429.43" x2="874.66" y2="769.22" xlink:href="#linear-gradient-2"/><linearGradient id="linear-gradient-13" x1="625.38" y1="338.93" x2="965.16" y2="678.72" xlink:href="#linear-gradient-2"/><linearGradient id="linear-gradient-15" x1="580.2" y1="384.11" x2="919.99" y2="723.9" xlink:href="#linear-gradient-2"/><linearGradient id="linear-gradient-17" x1="489.55" y1="474.76" x2="829.34" y2="814.55" xlink:href="#linear-gradient-2"/></defs><path class="cls-1" d="M740.23,260.33A104.88,104.88,0,0,0,845.11,155.44,104.89,104.89,0,0,0,950,260.33,104.89,104.89,0,0,0,845.11,365.21,104.88,104.88,0,0,0,740.23,260.33Z"/><path class="cls-2" d="M393.83,843.09A342.15,342.15,0,0,0,581.94,787H205.71A342.18,342.18,0,0,0,393.83,843.09Z"/><path class="cls-3" d="M148.11,739.67H639.54A345.09,345.09,0,0,0,685,682.13H102.71A345.55,345.55,0,0,0,148.11,739.67Z"/><path class="cls-4" d="M643.09,262.59H144.57a344.66,344.66,0,0,0-44.25,57.54h587A344.07,344.07,0,0,0,643.09,262.59Z"/><path class="cls-5" d="M77.78,634.79H709.87a341.29,341.29,0,0,0,18.8-57.55H59A341.26,341.26,0,0,0,77.78,634.79Z"/><path class="cls-6" d="M736.51,472.36H51.15C50.46,481.25,50,490.2,50,499.27c0,10.33.54,20.53,1.43,30.63H736.22c.9-10.1,1.44-20.3,1.44-30.63C737.66,490.2,737.2,481.25,736.51,472.36Z"/><path class="cls-7" d="M711.44,367.47H76.22A340.65,340.65,0,0,0,58.13,425h671.4A341.56,341.56,0,0,0,711.44,367.47Z"/><path class="cls-8" d="M432.78,157.7a336.77,336.77,0,0,0-77.9,0,341.66,341.66,0,0,0-154.81,57.54H587.58A341.66,341.66,0,0,0,432.78,157.7Z"/><path class="cls-9" d="M711.46,844.56A237.59,237.59,0,0,0,866.74,787H556.18A237.55,237.55,0,0,0,711.46,844.56Z"/><path class="cls-9" d="M711.46,844.56A237.59,237.59,0,0,0,866.74,787H556.18A237.55,237.55,0,0,0,711.46,844.56Z"/><path class="cls-10" d="M472.91,606a241.8,241.8,0,0,0,1.79,28.77H948.21a232.1,232.1,0,0,0,0-57.54H474.7A241.54,241.54,0,0,0,472.91,606Z"/><path class="cls-10" d="M472.91,606a241.8,241.8,0,0,0,1.79,28.77H948.21a232.1,232.1,0,0,0,0-57.54H474.7A241.54,241.54,0,0,0,472.91,606Z"/><path class="cls-11" d="M556.17,425H866.74a238.31,238.31,0,0,0-310.57,0Z"/><path class="cls-11" d="M556.17,425H866.74a238.31,238.31,0,0,0-310.57,0Z"/><path class="cls-12" d="M485.39,529.9H937.52a237.42,237.42,0,0,0-28.46-57.54H513.85A237.78,237.78,0,0,0,485.39,529.9Z"/><path class="cls-12" d="M485.39,529.9H937.52a237.42,237.42,0,0,0-28.46-57.54H513.85A237.78,237.78,0,0,0,485.39,529.9Z"/><path class="cls-13" d="M513.85,739.67H909.06a237.42,237.42,0,0,0,28.46-57.54H485.39A237.78,237.78,0,0,0,513.85,739.67Z"/><path class="cls-13" d="M513.85,739.67H909.06a237.42,237.42,0,0,0,28.46-57.54H485.39A237.78,237.78,0,0,0,513.85,739.67Z"/></svg>